<svg xmlns="http://www.w3.org/2000/svg" width="400" height="29" viewBox="0 0 400 29" fill="none">
  <path d="M13.608 28.36C11.64 28.36 9.828 28.036 8.172 27.388C6.516 26.74 5.076 25.84 3.852 24.688C2.628 23.512 1.68 22.144 1.008 20.584C0.336 19 0 17.272 0 15.4C0 13.528 0.336 11.812 1.008 10.252C1.68 8.66801 2.628 7.30001 3.852 6.14801C5.076 4.97201 6.516 4.06001 8.172 3.41201C9.828 2.76401 11.628 2.44001 13.572 2.44001C15.54 2.44001 17.34 2.76401 18.972 3.41201C20.628 4.06001 22.068 4.97201 23.292 6.14801C24.516 7.30001 25.464 8.66801 26.136 10.252C26.808 11.812 27.144 13.528 27.144 15.4C27.144 17.272 26.808 19 26.136 20.584C25.464 22.168 24.516 23.536 23.292 24.688C22.068 25.84 20.628 26.74 18.972 27.388C17.34 28.036 15.552 28.36 13.608 28.36ZM13.572 24.256C14.844 24.256 16.02 24.04 17.1 23.608C18.18 23.176 19.116 22.564 19.908 21.772C20.7 20.956 21.312 20.02 21.744 18.964C22.2 17.884 22.428 16.696 22.428 15.4C22.428 14.104 22.2 12.928 21.744 11.872C21.312 10.792 20.7 9.85601 19.908 9.06401C19.116 8.24801 18.18 7.62401 17.1 7.19201C16.02 6.76001 14.844 6.54401 13.572 6.54401C12.3 6.54401 11.124 6.76001 10.044 7.19201C8.988 7.62401 8.052 8.24801 7.236 9.06401C6.444 9.85601 5.82 10.792 5.364 11.872C4.932 12.928 4.716 14.104 4.716 15.4C4.716 16.672 4.932 17.848 5.364 18.928C5.82 20.008 6.444 20.956 7.236 21.772C8.028 22.564 8.964 23.176 10.044 23.608C11.124 24.04 12.3 24.256 13.572 24.256Z" fill="url(#paint0_linear_168_52)"/>
  <path d="M39.8087 28.252C38.1767 28.252 36.7367 27.952 35.4887 27.352C34.2407 26.728 33.2687 25.792 32.5727 24.544C31.8767 23.272 31.5287 21.676 31.5287 19.756V8.77601H36.0287V19.144C36.0287 20.872 36.4127 22.168 37.1807 23.032C37.9727 23.872 39.0887 24.292 40.5287 24.292C41.5847 24.292 42.4967 24.076 43.2647 23.644C44.0567 23.212 44.6687 22.564 45.1007 21.7C45.5567 20.836 45.7847 19.768 45.7847 18.496V8.77601H50.2847V28H46.0007V22.816L46.7567 24.4C46.1087 25.648 45.1607 26.608 43.9127 27.28C42.6647 27.928 41.2967 28.252 39.8087 28.252Z" fill="url(#paint1_linear_168_52)"/>
  <path d="M56.1766 28V8.77601H60.4606V14.068L59.9566 12.52C60.5326 11.224 61.4326 10.24 62.6566 9.56801C63.9046 8.89601 65.4526 8.56001 67.3006 8.56001V12.844C67.1086 12.796 66.9286 12.772 66.7606 12.772C66.5926 12.748 66.4246 12.736 66.2566 12.736C64.5526 12.736 63.1966 13.24 62.1886 14.248C61.1806 15.232 60.6766 16.708 60.6766 18.676V28H56.1766Z" fill="url(#paint2_linear_168_52)"/>
  <path d="M81.675 28V2.80001H86.355V28H81.675Z" fill="url(#paint3_linear_168_52)"/>
  <path d="M100.983 28.36C99.0151 28.36 97.1311 28.084 95.3311 27.532C93.5311 26.956 92.1031 26.224 91.0471 25.336L92.6671 21.7C93.6751 22.492 94.9231 23.152 96.4111 23.68C97.8991 24.208 99.4231 24.472 100.983 24.472C102.303 24.472 103.371 24.328 104.187 24.04C105.003 23.752 105.603 23.368 105.987 22.888C106.371 22.384 106.563 21.82 106.563 21.196C106.563 20.428 106.287 19.816 105.735 19.36C105.183 18.88 104.463 18.508 103.575 18.244C102.711 17.956 101.739 17.692 100.659 17.452C99.6031 17.212 98.5351 16.936 97.4551 16.624C96.3991 16.288 95.4271 15.868 94.5391 15.364C93.6751 14.836 92.9671 14.14 92.4151 13.276C91.8631 12.412 91.5871 11.308 91.5871 9.96401C91.5871 8.59601 91.9471 7.34801 92.6671 6.22001C93.4111 5.06801 94.5271 4.15601 96.0151 3.48401C97.5271 2.78801 99.4351 2.44001 101.739 2.44001C103.251 2.44001 104.751 2.63201 106.239 3.01601C107.727 3.40001 109.023 3.95201 110.127 4.67201L108.651 8.30801C107.523 7.63601 106.359 7.14401 105.159 6.83201C103.959 6.49601 102.807 6.32801 101.703 6.32801C100.407 6.32801 99.3511 6.48401 98.5351 6.79601C97.7431 7.10801 97.1551 7.51601 96.7711 8.02001C96.4111 8.52401 96.2311 9.10001 96.2311 9.74801C96.2311 10.516 96.4951 11.14 97.0231 11.62C97.5751 12.076 98.2831 12.436 99.1471 12.7C100.035 12.964 101.019 13.228 102.099 13.492C103.179 13.732 104.247 14.008 105.303 14.32C106.383 14.632 107.355 15.04 108.219 15.544C109.107 16.048 109.815 16.732 110.343 17.596C110.895 18.46 111.171 19.552 111.171 20.872C111.171 22.216 110.799 23.464 110.055 24.616C109.335 25.744 108.219 26.656 106.707 27.352C105.195 28.024 103.287 28.36 100.983 28.36Z" fill="url(#paint4_linear_168_52)"/>
  <path d="M127.62 28.36C125.652 28.36 123.84 28.036 122.184 27.388C120.528 26.74 119.088 25.84 117.864 24.688C116.64 23.512 115.692 22.144 115.02 20.584C114.348 19 114.012 17.272 114.012 15.4C114.012 13.528 114.348 11.812 115.02 10.252C115.692 8.66801 116.64 7.30001 117.864 6.14801C119.088 4.97201 120.528 4.06001 122.184 3.41201C123.84 2.76401 125.64 2.44001 127.584 2.44001C129.552 2.44001 131.352 2.76401 132.984 3.41201C134.64 4.06001 136.08 4.97201 137.304 6.14801C138.528 7.30001 139.476 8.66801 140.148 10.252C140.82 11.812 141.156 13.528 141.156 15.4C141.156 17.272 140.82 19 140.148 20.584C139.476 22.168 138.528 23.536 137.304 24.688C136.08 25.84 134.64 26.74 132.984 27.388C131.352 28.036 129.564 28.36 127.62 28.36ZM127.584 24.256C128.856 24.256 130.032 24.04 131.112 23.608C132.192 23.176 133.128 22.564 133.92 21.772C134.712 20.956 135.324 20.02 135.756 18.964C136.212 17.884 136.44 16.696 136.44 15.4C136.44 14.104 136.212 12.928 135.756 11.872C135.324 10.792 134.712 9.85601 133.92 9.06401C133.128 8.24801 132.192 7.62401 131.112 7.19201C130.032 6.76001 128.856 6.54401 127.584 6.54401C126.312 6.54401 125.136 6.76001 124.056 7.19201C123 7.62401 122.064 8.24801 121.248 9.06401C120.456 9.85601 119.832 10.792 119.376 11.872C118.944 12.928 118.728 14.104 118.728 15.4C118.728 16.672 118.944 17.848 119.376 18.928C119.832 20.008 120.456 20.956 121.248 21.772C122.04 22.564 122.976 23.176 124.056 23.608C125.136 24.04 126.312 24.256 127.584 24.256Z" fill="url(#paint5_linear_168_52)"/>
  <path d="M167.73 28.36C165.81 28.36 164.022 28.048 162.366 27.424C160.734 26.776 159.306 25.876 158.082 24.724C156.882 23.548 155.946 22.168 155.274 20.584C154.602 19 154.266 17.272 154.266 15.4C154.266 13.528 154.602 11.8 155.274 10.216C155.946 8.63201 156.894 7.26401 158.118 6.11201C159.342 4.93601 160.77 4.03601 162.402 3.41201C164.034 2.76401 165.822 2.44001 167.766 2.44001C169.83 2.44001 171.714 2.80001 173.418 3.52001C175.122 4.21601 176.562 5.26001 177.738 6.65201L174.714 9.49601C173.802 8.51201 172.782 7.78001 171.654 7.30001C170.526 6.79601 169.302 6.54401 167.982 6.54401C166.662 6.54401 165.45 6.76001 164.346 7.19201C163.266 7.62401 162.318 8.23601 161.502 9.02801C160.71 9.82001 160.086 10.756 159.63 11.836C159.198 12.916 158.982 14.104 158.982 15.4C158.982 16.696 159.198 17.884 159.63 18.964C160.086 20.044 160.71 20.98 161.502 21.772C162.318 22.564 163.266 23.176 164.346 23.608C165.45 24.04 166.662 24.256 167.982 24.256C169.302 24.256 170.526 24.016 171.654 23.536C172.782 23.032 173.802 22.276 174.714 21.268L177.738 24.148C176.562 25.516 175.122 26.56 173.418 27.28C171.714 28 169.818 28.36 167.73 28.36Z" fill="url(#paint6_linear_168_52)"/>
  <path d="M190.123 28.252C187.987 28.252 186.115 27.832 184.507 26.992C182.923 26.128 181.687 24.952 180.799 23.464C179.935 21.976 179.503 20.284 179.503 18.388C179.503 16.468 179.923 14.776 180.763 13.312C181.627 11.824 182.803 10.66 184.291 9.82001C185.803 8.98001 187.519 8.56001 189.439 8.56001C191.311 8.56001 192.979 8.96801 194.443 9.78401C195.907 10.6 197.059 11.752 197.899 13.24C198.739 14.728 199.159 16.48 199.159 18.496C199.159 18.688 199.147 18.904 199.123 19.144C199.123 19.384 199.111 19.612 199.087 19.828H183.067V16.84H196.711L194.947 17.776C194.971 16.672 194.743 15.7 194.263 14.86C193.783 14.02 193.123 13.36 192.283 12.88C191.467 12.4 190.519 12.16 189.439 12.16C188.335 12.16 187.363 12.4 186.523 12.88C185.707 13.36 185.059 14.032 184.579 14.896C184.123 15.736 183.895 16.732 183.895 17.884V18.604C183.895 19.756 184.159 20.776 184.687 21.664C185.215 22.552 185.959 23.236 186.919 23.716C187.879 24.196 188.983 24.436 190.231 24.436C191.311 24.436 192.283 24.268 193.147 23.932C194.011 23.596 194.779 23.068 195.451 22.348L197.863 25.12C196.999 26.128 195.907 26.908 194.587 27.46C193.291 27.988 191.803 28.252 190.123 28.252Z" fill="url(#paint7_linear_168_52)"/>
  <path d="M203.481 28V8.77601H207.765V14.068L207.261 12.52C207.837 11.224 208.737 10.24 209.961 9.56801C211.209 8.89601 212.757 8.56001 214.605 8.56001V12.844C214.413 12.796 214.233 12.772 214.065 12.772C213.897 12.748 213.729 12.736 213.561 12.736C211.857 12.736 210.501 13.24 209.493 14.248C208.485 15.232 207.981 16.708 207.981 18.676V28H203.481Z" fill="url(#paint8_linear_168_52)"/>
  <path d="M226.362 28.252C224.25 28.252 222.618 27.712 221.466 26.632C220.314 25.528 219.738 23.908 219.738 21.772V4.52801H224.238V21.664C224.238 22.576 224.466 23.284 224.922 23.788C225.402 24.292 226.062 24.544 226.902 24.544C227.91 24.544 228.75 24.28 229.422 23.752L230.682 26.956C230.154 27.388 229.506 27.712 228.738 27.928C227.97 28.144 227.178 28.252 226.362 28.252ZM216.57 12.52V8.92001H229.386V12.52H216.57Z" fill="url(#paint9_linear_168_52)"/>
  <path d="M234.384 28V8.77601H238.884V28H234.384ZM236.652 5.60801C235.812 5.60801 235.116 5.34401 234.564 4.81601C234.036 4.28801 233.772 3.65201 233.772 2.90801C233.772 2.14001 234.036 1.50401 234.564 1.00001C235.116 0.472007 235.812 0.208008 236.652 0.208008C237.492 0.208008 238.176 0.460007 238.704 0.964007C239.256 1.44401 239.532 2.05601 239.532 2.80001C239.532 3.59201 239.268 4.26401 238.74 4.81601C238.212 5.34401 237.516 5.60801 236.652 5.60801Z" fill="url(#paint10_linear_168_52)"/>
  <path d="M245.402 28V7.69601C245.402 5.68001 245.99 4.07201 247.166 2.87201C248.366 1.64801 250.07 1.03601 252.278 1.03601C253.07 1.03601 253.814 1.12001 254.51 1.28801C255.23 1.45601 255.83 1.72001 256.31 2.08001L255.086 5.46401C254.75 5.20001 254.366 5.00801 253.934 4.88801C253.502 4.74401 253.058 4.67201 252.602 4.67201C251.666 4.67201 250.958 4.93601 250.478 5.46401C249.998 5.96801 249.758 6.73601 249.758 7.76801V9.92801L249.902 11.944V28H245.402ZM242.234 12.52V8.92001H255.05V12.52H242.234ZM258.218 28V8.77601H262.718V28H258.218ZM260.486 5.60801C259.646 5.60801 258.95 5.34401 258.398 4.81601C257.87 4.28801 257.606 3.65201 257.606 2.90801C257.606 2.14001 257.87 1.50401 258.398 1.00001C258.95 0.472007 259.646 0.208008 260.486 0.208008C261.326 0.208008 262.01 0.460007 262.538 0.964007C263.09 1.44401 263.366 2.05601 263.366 2.80001C263.366 3.59201 263.102 4.26401 262.574 4.81601C262.046 5.34401 261.35 5.60801 260.486 5.60801Z" fill="url(#paint11_linear_168_52)"/>
  <path d="M277.446 28.252C275.43 28.252 273.63 27.832 272.046 26.992C270.486 26.128 269.262 24.952 268.374 23.464C267.486 21.976 267.042 20.284 267.042 18.388C267.042 16.468 267.486 14.776 268.374 13.312C269.262 11.824 270.486 10.66 272.046 9.82001C273.63 8.98001 275.43 8.56001 277.446 8.56001C279.318 8.56001 280.962 8.94401 282.378 9.71201C283.818 10.456 284.91 11.56 285.654 13.024L282.198 15.04C281.622 14.128 280.914 13.456 280.074 13.024C279.258 12.592 278.37 12.376 277.41 12.376C276.306 12.376 275.31 12.616 274.422 13.096C273.534 13.576 272.838 14.272 272.334 15.184C271.83 16.072 271.578 17.14 271.578 18.388C271.578 19.636 271.83 20.716 272.334 21.628C272.838 22.516 273.534 23.2 274.422 23.68C275.31 24.16 276.306 24.4 277.41 24.4C278.37 24.4 279.258 24.184 280.074 23.752C280.914 23.32 281.622 22.648 282.198 21.736L285.654 23.752C284.91 25.192 283.818 26.308 282.378 27.1C280.962 27.868 279.318 28.252 277.446 28.252Z" fill="url(#paint12_linear_168_52)"/>
  <path d="M301.388 28V24.112L301.136 23.284V16.48C301.136 15.16 300.74 14.14 299.948 13.42C299.156 12.676 297.956 12.304 296.348 12.304C295.268 12.304 294.2 12.472 293.144 12.808C292.112 13.144 291.236 13.612 290.516 14.212L288.752 10.936C289.784 10.144 291.008 9.55601 292.424 9.17201C293.864 8.76401 295.352 8.56001 296.888 8.56001C299.672 8.56001 301.82 9.23201 303.332 10.576C304.868 11.896 305.636 13.948 305.636 16.732V28H301.388ZM295.34 28.252C293.9 28.252 292.64 28.012 291.56 27.532C290.48 27.028 289.64 26.344 289.04 25.48C288.464 24.592 288.176 23.596 288.176 22.492C288.176 21.412 288.428 20.44 288.932 19.576C289.46 18.712 290.312 18.028 291.488 17.524C292.664 17.02 294.224 16.768 296.168 16.768H301.748V19.756H296.492C294.956 19.756 293.924 20.008 293.396 20.512C292.868 20.992 292.604 21.592 292.604 22.312C292.604 23.128 292.928 23.776 293.576 24.256C294.224 24.736 295.124 24.976 296.276 24.976C297.38 24.976 298.364 24.724 299.228 24.22C300.116 23.716 300.752 22.972 301.136 21.988L301.892 24.688C301.46 25.816 300.68 26.692 299.552 27.316C298.448 27.94 297.044 28.252 295.34 28.252Z" fill="url(#paint13_linear_168_52)"/>
  <path d="M318.647 28.252C316.535 28.252 314.903 27.712 313.751 26.632C312.599 25.528 312.023 23.908 312.023 21.772V4.52801H316.523V21.664C316.523 22.576 316.751 23.284 317.207 23.788C317.687 24.292 318.347 24.544 319.187 24.544C320.195 24.544 321.035 24.28 321.707 23.752L322.967 26.956C322.439 27.388 321.791 27.712 321.023 27.928C320.255 28.144 319.463 28.252 318.647 28.252ZM308.855 12.52V8.92001H321.671V12.52H308.855Z" fill="url(#paint14_linear_168_52)"/>
  <path d="M326.669 28V8.77601H331.169V28H326.669ZM328.937 5.60801C328.097 5.60801 327.401 5.34401 326.849 4.81601C326.321 4.28801 326.057 3.65201 326.057 2.90801C326.057 2.14001 326.321 1.50401 326.849 1.00001C327.401 0.472007 328.097 0.208008 328.937 0.208008C329.777 0.208008 330.461 0.460007 330.989 0.964007C331.541 1.44401 331.817 2.05601 331.817 2.80001C331.817 3.59201 331.553 4.26401 331.025 4.81601C330.497 5.34401 329.801 5.60801 328.937 5.60801Z" fill="url(#paint15_linear_168_52)"/>
  <path d="M345.715 28.252C343.747 28.252 341.995 27.832 340.459 26.992C338.923 26.128 337.711 24.952 336.823 23.464C335.935 21.976 335.491 20.284 335.491 18.388C335.491 16.468 335.935 14.776 336.823 13.312C337.711 11.824 338.923 10.66 340.459 9.82001C341.995 8.98001 343.747 8.56001 345.715 8.56001C347.707 8.56001 349.471 8.98001 351.007 9.82001C352.567 10.66 353.779 11.812 354.643 13.276C355.531 14.74 355.975 16.444 355.975 18.388C355.975 20.284 355.531 21.976 354.643 23.464C353.779 24.952 352.567 26.128 351.007 26.992C349.471 27.832 347.707 28.252 345.715 28.252ZM345.715 24.4C346.819 24.4 347.803 24.16 348.667 23.68C349.531 23.2 350.203 22.504 350.683 21.592C351.187 20.68 351.439 19.612 351.439 18.388C351.439 17.14 351.187 16.072 350.683 15.184C350.203 14.272 349.531 13.576 348.667 13.096C347.803 12.616 346.831 12.376 345.751 12.376C344.647 12.376 343.663 12.616 342.799 13.096C341.959 13.576 341.287 14.272 340.783 15.184C340.279 16.072 340.027 17.14 340.027 18.388C340.027 19.612 340.279 20.68 340.783 21.592C341.287 22.504 341.959 23.2 342.799 23.68C343.663 24.16 344.635 24.4 345.715 24.4Z" fill="url(#paint16_linear_168_52)"/>
  <path d="M371.186 8.56001C372.722 8.56001 374.09 8.86001 375.29 9.46001C376.514 10.06 377.474 10.984 378.17 12.232C378.866 13.456 379.214 15.04 379.214 16.984V28H374.714V17.56C374.714 15.856 374.306 14.584 373.49 13.744C372.698 12.904 371.582 12.484 370.142 12.484C369.086 12.484 368.15 12.7 367.334 13.132C366.518 13.564 365.882 14.212 365.426 15.076C364.994 15.916 364.778 16.984 364.778 18.28V28H360.278V8.77601H364.562V13.96L363.806 12.376C364.478 11.152 365.45 10.216 366.722 9.56801C368.018 8.89601 369.506 8.56001 371.186 8.56001Z" fill="url(#paint17_linear_168_52)"/>
  <path d="M390.863 28.252C389.255 28.252 387.707 28.048 386.219 27.64C384.755 27.208 383.591 26.692 382.727 26.092L384.455 22.672C385.319 23.224 386.351 23.68 387.551 24.04C388.751 24.4 389.951 24.58 391.151 24.58C392.567 24.58 393.587 24.388 394.211 24.004C394.859 23.62 395.183 23.104 395.183 22.456C395.183 21.928 394.967 21.532 394.535 21.268C394.103 20.98 393.539 20.764 392.843 20.62C392.147 20.476 391.367 20.344 390.503 20.224C389.663 20.104 388.811 19.948 387.947 19.756C387.107 19.54 386.339 19.24 385.643 18.856C384.947 18.448 384.383 17.908 383.951 17.236C383.519 16.564 383.303 15.676 383.303 14.572C383.303 13.348 383.651 12.292 384.347 11.404C385.043 10.492 386.015 9.79601 387.263 9.31601C388.535 8.81201 390.035 8.56001 391.763 8.56001C393.059 8.56001 394.367 8.70401 395.687 8.99201C397.007 9.28001 398.099 9.68801 398.963 10.216L397.235 13.636C396.323 13.084 395.399 12.712 394.463 12.52C393.551 12.304 392.639 12.196 391.727 12.196C390.359 12.196 389.339 12.4 388.667 12.808C388.019 13.216 387.695 13.732 387.695 14.356C387.695 14.932 387.911 15.364 388.343 15.652C388.775 15.94 389.339 16.168 390.035 16.336C390.731 16.504 391.499 16.648 392.339 16.768C393.203 16.864 394.055 17.02 394.895 17.236C395.735 17.452 396.503 17.752 397.199 18.136C397.919 18.496 398.495 19.012 398.927 19.684C399.359 20.356 399.575 21.232 399.575 22.312C399.575 23.512 399.215 24.556 398.495 25.444C397.799 26.332 396.803 27.028 395.507 27.532C394.211 28.012 392.663 28.252 390.863 28.252Z" fill="url(#paint18_linear_168_52)"/>
  <defs>
    <linearGradient id="paint0_linear_168_52" x1="-180.043" y1="-28" x2="692.457" y2="661" gradientUnits="userSpaceOnUse">
      <stop stop-color="#1F00B9"/>
      <stop offset="1" stop-color="#FA00FF" stop-opacity="0"/>
      <stop offset="1" stop-color="#F403FF" stop-opacity="0.0365826"/>
    </linearGradient>
    <linearGradient id="paint1_linear_168_52" x1="-180.043" y1="-28" x2="692.457" y2="661" gradientUnits="userSpaceOnUse">
      <stop stop-color="#1F00B9"/>
      <stop offset="1" stop-color="#FA00FF" stop-opacity="0"/>
      <stop offset="1" stop-color="#F403FF" stop-opacity="0.0365826"/>
    </linearGradient>
    <linearGradient id="paint2_linear_168_52" x1="-180.043" y1="-28" x2="692.457" y2="661" gradientUnits="userSpaceOnUse">
      <stop stop-color="#1F00B9"/>
      <stop offset="1" stop-color="#FA00FF" stop-opacity="0"/>
      <stop offset="1" stop-color="#F403FF" stop-opacity="0.0365826"/>
    </linearGradient>
    <linearGradient id="paint3_linear_168_52" x1="-180.043" y1="-28" x2="692.457" y2="661" gradientUnits="userSpaceOnUse">
      <stop stop-color="#1F00B9"/>
      <stop offset="1" stop-color="#FA00FF" stop-opacity="0"/>
      <stop offset="1" stop-color="#F403FF" stop-opacity="0.0365826"/>
    </linearGradient>
    <linearGradient id="paint4_linear_168_52" x1="-180.043" y1="-28" x2="692.457" y2="661" gradientUnits="userSpaceOnUse">
      <stop stop-color="#1F00B9"/>
      <stop offset="1" stop-color="#FA00FF" stop-opacity="0"/>
      <stop offset="1" stop-color="#F403FF" stop-opacity="0.0365826"/>
    </linearGradient>
    <linearGradient id="paint5_linear_168_52" x1="-180.043" y1="-28" x2="692.457" y2="661" gradientUnits="userSpaceOnUse">
      <stop stop-color="#1F00B9"/>
      <stop offset="1" stop-color="#FA00FF" stop-opacity="0"/>
      <stop offset="1" stop-color="#F403FF" stop-opacity="0.0365826"/>
    </linearGradient>
    <linearGradient id="paint6_linear_168_52" x1="-180.043" y1="-28" x2="692.457" y2="661" gradientUnits="userSpaceOnUse">
      <stop stop-color="#1F00B9"/>
      <stop offset="1" stop-color="#FA00FF" stop-opacity="0"/>
      <stop offset="1" stop-color="#F403FF" stop-opacity="0.0365826"/>
    </linearGradient>
    <linearGradient id="paint7_linear_168_52" x1="-180.043" y1="-28" x2="692.457" y2="661" gradientUnits="userSpaceOnUse">
      <stop stop-color="#1F00B9"/>
      <stop offset="1" stop-color="#FA00FF" stop-opacity="0"/>
      <stop offset="1" stop-color="#F403FF" stop-opacity="0.0365826"/>
    </linearGradient>
    <linearGradient id="paint8_linear_168_52" x1="-180.043" y1="-28" x2="692.457" y2="661" gradientUnits="userSpaceOnUse">
      <stop stop-color="#1F00B9"/>
      <stop offset="1" stop-color="#FA00FF" stop-opacity="0"/>
      <stop offset="1" stop-color="#F403FF" stop-opacity="0.0365826"/>
    </linearGradient>
    <linearGradient id="paint9_linear_168_52" x1="-180.043" y1="-28" x2="692.457" y2="661" gradientUnits="userSpaceOnUse">
      <stop stop-color="#1F00B9"/>
      <stop offset="1" stop-color="#FA00FF" stop-opacity="0"/>
      <stop offset="1" stop-color="#F403FF" stop-opacity="0.0365826"/>
    </linearGradient>
    <linearGradient id="paint10_linear_168_52" x1="-180.043" y1="-28" x2="692.457" y2="661" gradientUnits="userSpaceOnUse">
      <stop stop-color="#1F00B9"/>
      <stop offset="1" stop-color="#FA00FF" stop-opacity="0"/>
      <stop offset="1" stop-color="#F403FF" stop-opacity="0.0365826"/>
    </linearGradient>
    <linearGradient id="paint11_linear_168_52" x1="-180.043" y1="-28" x2="692.457" y2="661" gradientUnits="userSpaceOnUse">
      <stop stop-color="#1F00B9"/>
      <stop offset="1" stop-color="#FA00FF" stop-opacity="0"/>
      <stop offset="1" stop-color="#F403FF" stop-opacity="0.0365826"/>
    </linearGradient>
    <linearGradient id="paint12_linear_168_52" x1="-180.043" y1="-28" x2="692.457" y2="661" gradientUnits="userSpaceOnUse">
      <stop stop-color="#1F00B9"/>
      <stop offset="1" stop-color="#FA00FF" stop-opacity="0"/>
      <stop offset="1" stop-color="#F403FF" stop-opacity="0.0365826"/>
    </linearGradient>
    <linearGradient id="paint13_linear_168_52" x1="-180.043" y1="-28" x2="692.457" y2="661" gradientUnits="userSpaceOnUse">
      <stop stop-color="#1F00B9"/>
      <stop offset="1" stop-color="#FA00FF" stop-opacity="0"/>
      <stop offset="1" stop-color="#F403FF" stop-opacity="0.0365826"/>
    </linearGradient>
    <linearGradient id="paint14_linear_168_52" x1="-180.043" y1="-28" x2="692.457" y2="661" gradientUnits="userSpaceOnUse">
      <stop stop-color="#1F00B9"/>
      <stop offset="1" stop-color="#FA00FF" stop-opacity="0"/>
      <stop offset="1" stop-color="#F403FF" stop-opacity="0.0365826"/>
    </linearGradient>
    <linearGradient id="paint15_linear_168_52" x1="-180.043" y1="-28" x2="692.457" y2="661" gradientUnits="userSpaceOnUse">
      <stop stop-color="#1F00B9"/>
      <stop offset="1" stop-color="#FA00FF" stop-opacity="0"/>
      <stop offset="1" stop-color="#F403FF" stop-opacity="0.0365826"/>
    </linearGradient>
    <linearGradient id="paint16_linear_168_52" x1="-180.043" y1="-28" x2="692.457" y2="661" gradientUnits="userSpaceOnUse">
      <stop stop-color="#1F00B9"/>
      <stop offset="1" stop-color="#FA00FF" stop-opacity="0"/>
      <stop offset="1" stop-color="#F403FF" stop-opacity="0.0365826"/>
    </linearGradient>
    <linearGradient id="paint17_linear_168_52" x1="-180.043" y1="-28" x2="692.457" y2="661" gradientUnits="userSpaceOnUse">
      <stop stop-color="#1F00B9"/>
      <stop offset="1" stop-color="#FA00FF" stop-opacity="0"/>
      <stop offset="1" stop-color="#F403FF" stop-opacity="0.0365826"/>
    </linearGradient>
    <linearGradient id="paint18_linear_168_52" x1="-180.043" y1="-28" x2="692.457" y2="661" gradientUnits="userSpaceOnUse">
      <stop stop-color="#1F00B9"/>
      <stop offset="1" stop-color="#FA00FF" stop-opacity="0"/>
      <stop offset="1" stop-color="#F403FF" stop-opacity="0.0365826"/>
    </linearGradient>
  </defs>
</svg>