<?xml version="1.0" encoding="UTF-8"?>
<!DOCTYPE svg PUBLIC "-//W3C//DTD SVG 1.1//EN" "http://www.w3.org/Graphics/SVG/1.1/DTD/svg11.dtd">
<svg xmlns="http://www.w3.org/2000/svg" version="1.1" width="972px" height="1023px" style="shape-rendering:geometricPrecision; text-rendering:geometricPrecision; image-rendering:optimizeQuality; fill-rule:evenodd; clip-rule:evenodd" xmlns:xlink="http://www.w3.org/1999/xlink">
<g><path style="opacity:0.152" fill="#050201" d="M 626.5,732.5 C 623.925,729.681 621.592,726.681 619.5,723.5C 614.362,705.23 614.195,686.896 619,668.5C 626.903,644.359 638.237,622.026 653,601.5C 653.483,600.552 653.649,599.552 653.5,598.5C 650.314,598.105 647.314,597.105 644.5,595.5C 634.789,607.579 627.123,620.912 621.5,635.5C 620.833,634.833 620.167,634.167 619.5,633.5C 619.658,630.098 619.324,626.764 618.5,623.5C 619.477,620.713 619.81,617.713 619.5,614.5C 619.755,611.984 620.589,609.65 622,607.5C 631.406,598.225 641.906,590.559 653.5,584.5C 653.962,583.12 654.962,582.453 656.5,582.5C 658.383,583.024 660.216,583.691 662,584.5C 662.772,584.355 663.439,584.022 664,583.5C 666.61,577.947 668.943,572.281 671,566.5C 671.621,558.973 670.621,551.64 668,544.5C 667.617,543.944 667.117,543.611 666.5,543.5C 668.68,537.743 672.68,535.743 678.5,537.5C 678.5,537.833 678.5,538.167 678.5,538.5C 676.654,538.222 675.32,538.889 674.5,540.5C 675.976,544.404 677.143,548.404 678,552.5C 681.71,552.823 685.543,552.823 689.5,552.5C 691.167,552.5 692.833,552.5 694.5,552.5C 686.528,558.306 679.695,565.306 674,573.5C 673.383,580.613 675.383,586.947 680,592.5C 679.807,587.648 681.14,583.315 684,579.5C 689.239,573.59 695.072,568.423 701.5,564C 731.838,545.496 762.505,527.496 793.5,510C 804.186,503.651 814.02,496.151 823,487.5C 845.018,461.76 851.351,432.427 842,399.5C 840.572,394.815 838.739,390.315 836.5,386C 840.927,385.202 845.094,383.702 849,381.5C 848.537,376.788 846.87,372.454 844,368.5C 839.001,371.726 833.501,373.226 827.5,373C 831.163,381.912 834.996,390.745 839,399.5C 843.87,426.332 837.87,450.332 821,471.5C 815.112,479.021 808.279,485.521 800.5,491C 788.225,499.098 775.558,506.598 762.5,513.5C 761.808,508.952 761.141,504.452 760.5,500C 755.547,498.84 750.547,498.007 745.5,497.5C 745.5,502.5 745.5,507.5 745.5,512.5C 750.173,513.223 754.84,514.057 759.5,515C 749.14,520.513 738.806,526.013 728.5,531.5C 728.167,531.5 727.833,531.5 727.5,531.5C 727.666,526.821 727.499,522.155 727,517.5C 722.505,516.641 718.005,515.641 713.5,514.5C 715.334,509.827 717.167,505.161 719,500.5C 720.717,507.551 725.051,511.884 732,513.5C 735.5,512.909 737.833,510.909 739,507.5C 739.667,500.167 739.667,492.833 739,485.5C 738.691,484.234 738.191,483.067 737.5,482C 731.995,479.276 726.328,476.943 720.5,475C 717.894,474.208 715.894,472.708 714.5,470.5C 713.91,469.234 713.41,467.901 713,466.5C 712.204,469.039 712.371,471.372 713.5,473.5C 713.308,478.13 713.975,482.63 715.5,487C 714.42,490.662 712.92,494.162 711,497.5C 708.157,492.481 704.824,487.814 701,483.5C 698.999,485.802 698.499,488.302 699.5,491C 704.026,492.253 707.36,494.919 709.5,499C 702.806,515.021 691.473,520.021 675.5,514C 672.93,511.933 670.93,509.433 669.5,506.5C 685.768,506.398 695.601,498.398 699,482.5C 699.167,477 699.333,471.5 699.5,466C 698.829,453.488 698.329,440.988 698,428.5C 699.474,422.892 702.474,418.225 707,414.5C 707.499,409.511 707.666,404.511 707.5,399.5C 704.386,400.091 701.886,401.758 700,404.5C 697.229,408.804 695.229,413.471 694,418.5C 693.955,415.666 693.121,413.166 691.5,411C 686.567,406.868 680.9,404.368 674.5,403.5C 674.019,407.202 673.352,410.869 672.5,414.5C 679.636,415.122 686.303,417.122 692.5,420.5C 693.664,427.142 693.831,433.808 693,440.5C 687.624,445.544 681.958,450.211 676,454.5C 675.333,453.167 675.333,451.833 676,450.5C 678.964,446.534 682.297,442.867 686,439.5C 689.403,433.027 689.069,426.693 685,420.5C 682.289,424.712 678.789,428.046 674.5,430.5C 670.774,434.426 669.608,439.093 671,444.5C 674,453.167 677,461.833 680,470.5C 684.602,464.943 689.768,459.943 695.5,455.5C 697.234,466.797 694.401,476.797 687,485.5C 687.811,482.859 688.978,480.192 690.5,477.5C 672.587,474.356 658.253,480.022 647.5,494.5C 647.5,494.167 647.5,493.833 647.5,493.5C 648.048,491.606 649.048,489.94 650.5,488.5C 637.145,482.121 630.145,471.454 629.5,456.5C 628.109,455.355 626.776,455.355 625.5,456.5C 626.954,462.068 628.954,467.402 631.5,472.5C 630.348,473.625 629.348,473.625 628.5,472.5C 628.938,472.565 629.272,472.399 629.5,472C 626.416,467.247 624.416,462.08 623.5,456.5C 612.023,454.355 604.69,447.688 601.5,436.5C 602.167,435.833 602.833,435.167 603.5,434.5C 603.33,435.822 603.663,436.989 604.5,438C 608.307,439.881 612.307,441.047 616.5,441.5C 616.7,436.736 617.2,432.069 618,427.5C 614.659,425.746 611.159,424.413 607.5,423.5C 607.5,422.833 607.5,422.167 607.5,421.5C 610.511,420.439 613.511,419.273 616.5,418C 617.059,417.275 617.392,416.442 617.5,415.5C 614.458,404.914 609.458,395.414 602.5,387C 600.5,386 598.5,385 596.5,384C 588.482,383.11 580.482,382.11 572.5,381C 569.438,379.939 566.938,378.106 565,375.5C 565.758,384.182 569.925,390.682 577.5,395C 584.833,395.667 592.167,396.333 599.5,397C 612.592,401.594 612.925,405.594 600.5,409C 584.082,413.802 567.415,415.968 550.5,415.5C 549.791,414.596 548.791,414.263 547.5,414.5C 547.784,416.415 547.451,418.081 546.5,419.5C 545.839,410.572 547.005,401.905 550,393.5C 558.808,375.217 568.141,357.217 578,339.5C 580.337,332.489 582.67,325.489 585,318.5C 586.305,311.874 586.638,305.208 586,298.5C 583.746,294.993 581.746,291.327 580,287.5C 579.152,296.857 575.819,305.191 570,312.5C 556.333,325.5 542.667,338.5 529,351.5C 525.619,355.247 524.286,359.581 525,364.5C 526.556,369.28 528.889,373.613 532,377.5C 531.679,371.816 533.345,366.816 537,362.5C 545.565,353.265 554.732,344.765 564.5,337C 565.332,336.312 565.998,336.479 566.5,337.5C 555.253,354.995 546.42,373.662 540,393.5C 539.501,399.516 539.668,405.516 540.5,411.5C 540.672,412.492 540.338,413.158 539.5,413.5C 535.904,410.083 532.071,406.75 528,403.5C 525.56,400.272 523.394,396.939 521.5,393.5C 523.976,380.609 519.31,371.775 507.5,367C 502.531,365.841 497.531,364.841 492.5,364C 489.898,363.117 487.731,361.617 486,359.5C 483.8,369.107 487.3,375.441 496.5,378.5C 495.779,388.144 498.446,396.644 504.5,404C 506.817,406.157 509.484,407.657 512.5,408.5C 512.158,409.338 511.492,409.672 510.5,409.5C 508.5,409.5 506.5,409.5 504.5,409.5C 505.421,414.014 506.921,418.347 509,422.5C 512.057,423.451 515.223,423.784 518.5,423.5C 518.5,424.5 518.5,425.5 518.5,426.5C 512.07,442.945 515.737,456.778 529.5,468C 536.057,473.1 542.724,477.933 549.5,482.5C 547.042,489.336 543.542,495.67 539,501.5C 530.628,508.205 523.295,515.871 517,524.5C 514.371,532.955 515.371,540.955 520,548.5C 521.572,538.039 526.738,529.706 535.5,523.5C 534.433,528.782 534.267,534.115 535,539.5C 538.324,541.579 541.824,543.246 545.5,544.5C 545.5,545.167 545.167,545.5 544.5,545.5C 543.504,545.586 542.671,545.252 542,544.5C 535.819,558.686 525.319,567.852 510.5,572C 507.833,572.667 505.167,572.667 502.5,572C 499.308,569.972 496.641,567.472 494.5,564.5C 494.5,564.167 494.5,563.833 494.5,563.5C 496.683,558.473 499.517,553.807 503,549.5C 505.029,546.448 506.196,543.114 506.5,539.5C 504.951,532.518 502.618,525.851 499.5,519.5C 500.583,519.539 501.583,519.873 502.5,520.5C 505.442,507.558 505.942,494.558 504,481.5C 501.872,478.37 499.372,475.537 496.5,473C 488.779,468.473 480.779,464.473 472.5,461C 469.872,459.374 467.539,457.374 465.5,455C 475.91,447.144 486.244,439.31 496.5,431.5C 495.475,419.993 490.141,411.16 480.5,405C 476.074,404.209 471.741,404.543 467.5,406C 463.241,407.934 459.241,410.268 455.5,413C 446.102,423.067 436.102,432.4 425.5,441C 417.972,446.132 409.639,448.299 400.5,447.5C 400.741,442.87 403.075,439.703 407.5,438C 411.697,437.172 414.864,438.672 417,442.5C 416.165,437.327 414.498,432.327 412,427.5C 404.518,420.246 398.185,421.246 393,430.5C 392.333,433.833 392.333,437.167 393,440.5C 395.86,446.081 398.526,451.748 401,457.5C 404.057,460.945 407.89,462.612 412.5,462.5C 418.828,461.78 424.828,459.947 430.5,457C 442.133,447.036 453.466,436.702 464.5,426C 469.024,422.738 474.024,420.571 479.5,419.5C 481.299,419.577 482.966,420.077 484.5,421C 472.917,429.612 461.583,438.445 450.5,447.5C 449.182,454.011 449.182,460.678 450.5,467.5C 451.107,467.376 451.44,467.043 451.5,466.5C 454.476,463.698 457.642,461.031 461,458.5C 459.387,467.094 462.22,473.594 469.5,478C 478.485,482.158 487.152,486.825 495.5,492C 497.709,493.873 499.542,496.04 501,498.5C 501.749,499.635 501.583,500.635 500.5,501.5C 488.494,497.299 476.16,494.632 463.5,493.5C 464.012,488.447 464.512,483.447 465,478.5C 461.613,475.447 457.947,472.78 454,470.5C 452.035,474.988 451.369,479.655 452,484.5C 455.167,487 458.333,489.5 461.5,492C 456.909,491.191 452.242,490.358 447.5,489.5C 447.5,488.5 447.5,487.5 447.5,486.5C 447.5,485.167 447.5,483.833 447.5,482.5C 448.825,469.994 448.825,457.327 447.5,444.5C 446.893,444.624 446.56,444.957 446.5,445.5C 445.645,446.531 444.978,447.697 444.5,449C 445.348,451.77 445.681,454.603 445.5,457.5C 445.5,467.833 445.5,478.167 445.5,488.5C 420.89,483.448 400.057,471.782 383,453.5C 377.032,446.93 374.699,439.264 376,430.5C 381.369,422.483 388.869,417.65 398.5,416C 413.297,414.377 426.13,418.544 437,428.5C 438.833,426.667 440.667,424.833 442.5,423C 429.836,401.171 412.169,395.837 389.5,407C 371.867,419.689 367.034,436.189 375,456.5C 379.501,466.163 386.001,474.163 394.5,480.5C 393.833,480.5 393.5,480.833 393.5,481.5C 392.258,480.957 390.925,480.623 389.5,480.5C 367.68,486.442 349.346,481.109 334.5,464.5C 334.822,458.642 334.489,452.975 333.5,447.5C 333.703,445.61 333.037,444.11 331.5,443C 326.705,440.967 321.705,440.134 316.5,440.5C 316.909,446.502 317.409,452.502 318,458.5C 321.745,459.297 325.579,459.797 329.5,460C 330.571,460.852 331.571,461.685 332.5,462.5C 332.833,463.167 333.167,463.833 333.5,464.5C 344.849,489.286 364.182,499.786 391.5,496C 388.202,500.3 384.535,504.3 380.5,508C 374.247,512.043 368.08,516.21 362,520.5C 361.749,525.66 362.582,530.66 364.5,535.5C 372.269,530.198 379.769,524.531 387,518.5C 384.826,525.515 382.326,532.515 379.5,539.5C 378.596,540.209 378.263,541.209 378.5,542.5C 367.136,542.68 355.803,542.18 344.5,541C 329.237,538.956 318.071,531.123 311,517.5C 307.878,510.315 305.711,502.982 304.5,495.5C 303.539,493.735 303.205,491.735 303.5,489.5C 307.001,488.656 309.834,489.989 312,493.5C 314.921,501.841 318.754,509.674 323.5,517C 324.635,517.749 325.635,517.583 326.5,516.5C 333.913,503.227 342.913,502.06 353.5,513C 354.5,513.667 355.5,513.667 356.5,513C 359.274,510.936 361.107,508.436 362,505.5C 345.913,498.749 333.58,487.749 325,472.5C 313.359,468.042 306.859,459.708 305.5,447.5C 308.815,431.014 318.149,426.181 333.5,433C 337.036,436.201 340.203,439.701 343,443.5C 344.496,449.49 345.83,455.49 347,461.5C 353.215,468.034 360.715,470.701 369.5,469.5C 355.652,443.699 359.319,420.866 380.5,401C 395.334,389.428 411.334,387.261 428.5,394.5C 430.029,394.471 431.196,393.804 432,392.5C 440.357,379.122 449.69,366.455 460,354.5C 470.838,340.969 479.171,325.969 485,309.5C 486.756,300.923 487.756,292.257 488,283.5C 488.683,277.148 492.016,272.815 498,270.5C 505.155,273.446 509.489,278.78 511,286.5C 512.819,294.077 513.985,301.744 514.5,309.5C 519.179,309.334 523.845,309.501 528.5,310C 533.552,312.597 537.386,316.43 540,321.5C 542.21,322.749 544.376,322.582 546.5,321C 549.535,317.63 552.868,314.63 556.5,312C 560.838,307.654 564.171,302.654 566.5,297C 562.629,292.165 558.462,287.665 554,283.5C 547.231,267.548 552.565,258.215 570,255.5C 580.032,258.535 586.366,265.201 589,275.5C 589.333,278.833 589.667,282.167 590,285.5C 595.757,293.188 598.423,301.855 598,311.5C 599.723,314.773 602.223,315.773 605.5,314.5C 610.5,300.165 617.333,286.832 626,274.5C 639.953,256.212 654.286,238.212 669,220.5C 685.837,196.82 692.837,170.487 690,141.5C 687.67,129.169 683.003,117.836 676,107.5C 670.782,106.819 665.615,105.652 660.5,104C 653.821,99.1414 649.821,92.6414 648.5,84.5C 653.174,72.6842 661.841,67.8508 674.5,70C 680.803,74.4373 685.303,80.2706 688,87.5C 725.333,128.857 730.666,174.191 704,223.5C 691.884,243.616 678.217,262.616 663,280.5C 659.97,284.698 657.137,289.032 654.5,293.5C 654.833,293.833 655.167,294.167 655.5,294.5C 681.81,281.502 706.143,284.335 728.5,303C 739.848,315.193 745.848,329.693 746.5,346.5C 750.105,345.037 753.771,343.537 757.5,342C 760.833,341.333 764.167,341.333 767.5,342C 775.831,347.304 780.331,354.804 781,364.5C 778.404,368.931 775.238,372.931 771.5,376.5C 776.323,382.147 780.657,388.147 784.5,394.5C 798.382,395.375 806.716,402.709 809.5,416.5C 808.986,419.211 807.986,421.711 806.5,424C 809,427.167 811.5,430.333 814,433.5C 816.426,438.984 818.926,444.317 821.5,449.5C 824.917,445.094 827.084,440.094 828,434.5C 829.97,422.829 829.97,411.162 828,399.5C 826.211,393.716 823.545,388.383 820,383.5C 817.829,379.21 817.495,374.877 819,370.5C 825.274,363.106 833.274,359.106 843,358.5C 852.164,362.336 857.664,369.169 859.5,379C 859.091,381.321 858.257,383.487 857,385.5C 854.265,387.732 852.098,390.399 850.5,393.5C 864.121,435.184 855.121,471.017 823.5,501C 815.446,507.387 807.112,513.387 798.5,519C 769.833,535.667 741.167,552.333 712.5,569C 701.949,575.217 693.783,583.717 688,594.5C 687.672,600.196 689.006,605.529 692,610.5C 707.556,620.942 708.389,632.442 694.5,645C 682.832,648.775 673.999,645.275 668,634.5C 666.272,629.718 666.105,624.885 667.5,620C 666.349,616.35 664.015,613.85 660.5,612.5C 658.617,612.876 657.117,613.876 656,615.5C 642.073,635.933 632.406,658.267 627,682.5C 626.618,688.677 626.118,694.844 625.5,701C 626.383,708.58 627.716,716.08 629.5,723.5C 629.25,726.867 628.25,729.867 626.5,732.5 Z"/></g>
<g><path style="opacity:1" fill="#f2d930" d="M 678.5,93.5 C 673.504,94.3391 668.504,94.8391 663.5,95C 661.336,90.674 659.669,86.174 658.5,81.5C 663.432,80.1815 668.432,79.6815 673.5,80C 675.31,84.4516 676.976,88.9516 678.5,93.5 Z"/></g>
<g><path style="opacity:1" fill="#f68600" d="M 678.5,93.5 C 705.566,119.219 715.066,150.552 707,187.5C 701.367,208.098 692.034,226.765 679,243.5C 662.507,263.659 647.174,284.659 633,306.5C 626.883,318.175 625.05,330.175 627.5,342.5C 623.189,339.357 619.022,336.023 615,332.5C 614.266,323.094 615.933,314.094 620,305.5C 623.989,296.18 628.989,287.513 635,279.5C 652.097,259.072 668.431,238.072 684,216.5C 699.218,191.41 704.551,164.41 700,135.5C 695.711,119.919 688.544,105.919 678.5,93.5 Z"/></g>
<g><path style="opacity:1" fill="#f7653f" d="M 564.5,266.5 C 568.167,266.5 571.833,266.5 575.5,266.5C 576.523,271.071 577.856,275.571 579.5,280C 579.095,280.945 578.428,281.612 577.5,282C 573.981,282.377 570.481,282.877 567,283.5C 565.674,283.245 564.674,282.578 564,281.5C 562.518,276.892 561.351,272.225 560.5,267.5C 562.099,267.768 563.432,267.434 564.5,266.5 Z"/></g>
<g><path style="opacity:1" fill="#bd07a8" d="M 499.5,281.5 C 502.677,291.576 503.843,301.909 503,312.5C 499.285,333.59 490.952,352.59 478,369.5C 467.95,381.882 458.283,394.549 449,407.5C 447.059,411.048 445.393,414.714 444,418.5C 442.091,413.441 440.591,408.274 439.5,403C 441.337,396.16 444.504,389.993 449,384.5C 463.133,368.231 475.8,350.898 487,332.5C 492.827,321.519 496.327,309.853 497.5,297.5C 498.167,292.167 498.833,286.833 499.5,281.5 Z"/></g>
<g><path style="opacity:1" fill="#f70087" d="M 546.5,419.5 C 546.927,422.01 547.593,424.343 548.5,426.5C 549.182,430.198 550.682,433.531 553,436.5C 556.023,434.302 558.856,431.969 561.5,429.5C 562.167,430.833 562.833,432.167 563.5,433.5C 564.135,436.493 564.301,439.493 564,442.5C 559.03,445.475 554.696,449.142 551,453.5C 550.667,448.167 550.333,442.833 550,437.5C 547.673,433.347 545.84,429.013 544.5,424.5C 543.136,420.082 541.803,415.749 540.5,411.5C 539.668,405.516 539.501,399.516 540,393.5C 546.42,373.662 555.253,354.995 566.5,337.5C 565.998,336.479 565.332,336.312 564.5,337C 554.732,344.765 545.565,353.265 537,362.5C 533.345,366.816 531.679,371.816 532,377.5C 528.889,373.613 526.556,369.28 525,364.5C 524.286,359.581 525.619,355.247 529,351.5C 542.667,338.5 556.333,325.5 570,312.5C 575.819,305.191 579.152,296.857 580,287.5C 581.746,291.327 583.746,294.993 586,298.5C 586.638,305.208 586.305,311.874 585,318.5C 582.67,325.489 580.337,332.489 578,339.5C 568.141,357.217 558.808,375.217 550,393.5C 547.005,401.905 545.839,410.572 546.5,419.5 Z"/></g>
<g><path style="opacity:1" fill="#56034c" d="M 499.5,281.5 C 498.833,286.833 498.167,292.167 497.5,297.5C 497.334,291.158 497.5,284.825 498,278.5C 499.039,279.244 499.539,280.244 499.5,281.5 Z"/></g>
<g><path style="opacity:1" fill="#f6de31" d="M 677.5,297.5 C 708.827,294.393 727.994,308.06 735,338.5C 735.667,343.833 735.667,349.167 735,354.5C 734.457,356.631 733.624,358.631 732.5,360.5C 730.5,358.833 728.5,357.167 726.5,355.5C 734.883,341.755 732.883,329.922 720.5,320C 705.805,311.051 690.139,308.717 673.5,313C 669.681,314.074 666.348,315.907 663.5,318.5C 665.024,320.858 667.024,322.691 669.5,324C 676.479,325.461 683.145,327.795 689.5,331C 694.91,336.71 696.91,343.543 695.5,351.5C 697.707,366.501 693.207,369.167 682,359.5C 679.249,353.716 676.415,348.049 673.5,342.5C 672.52,343.981 671.353,345.315 670,346.5C 666.733,352.651 664.066,358.984 662,365.5C 659.194,355.18 660.361,345.346 665.5,336C 663.959,334.421 662.792,332.587 662,330.5C 661.921,326.642 661.254,322.976 660,319.5C 648.53,328.811 640.364,340.478 635.5,354.5C 633.144,355.294 630.811,354.961 628.5,353.5C 628.787,341.153 632.953,330.153 641,320.5C 650.795,308.834 662.962,301.168 677.5,297.5 Z"/></g>
<g><path style="opacity:1" fill="#f60087" d="M 519.5,320.5 C 522.833,320.5 526.167,320.5 529.5,320.5C 531.002,325.488 532.169,330.488 533,335.5C 528.22,336.953 523.387,337.286 518.5,336.5C 516.108,331.793 515.108,326.96 515.5,322C 517.058,321.79 518.391,321.29 519.5,320.5 Z"/></g>
<g><path style="opacity:1" fill="#f3633e" d="M 584.5,322.5 C 595.128,322.23 603.294,326.563 609,335.5C 613.851,343.903 617.018,352.903 618.5,362.5C 613.367,376.892 604.034,380.392 590.5,373C 583.683,368.543 578.85,362.71 576,355.5C 585.307,365.559 595.807,367.059 607.5,360C 614.833,348.67 612.167,340.67 599.5,336C 596.118,335.824 592.785,335.324 589.5,334.5C 587.262,330.697 585.596,326.697 584.5,322.5 Z"/></g>
<g><path style="opacity:1" fill="#c6ae00" d="M 710.5,329.5 C 712.288,329.215 713.955,329.548 715.5,330.5C 717.305,334.61 718.972,338.777 720.5,343C 720.18,344.653 719.18,345.653 717.5,346C 713.582,347.156 709.582,347.656 705.5,347.5C 704.238,342.717 702.572,338.05 700.5,333.5C 703.786,331.855 707.119,330.522 710.5,329.5 Z"/></g>
<g><path style="opacity:1" fill="#f3633e" d="M 591.5,339.5 C 593.924,339.192 596.257,339.526 598.5,340.5C 600.657,345.301 601.99,350.301 602.5,355.5C 597.809,356.243 593.143,356.743 588.5,357C 586.332,351.997 584.666,346.83 583.5,341.5C 586.373,341.198 589.039,340.531 591.5,339.5 Z"/></g>
<g><path style="opacity:1" fill="#f28400" d="M 647.5,340.5 C 655.18,346.846 658.013,354.846 656,364.5C 651.811,369.088 646.645,370.588 640.5,369C 628.175,364.049 620.509,355.716 617.5,344C 620.5,349.667 624.833,354 630.5,357C 644.107,359.224 649.774,353.724 647.5,340.5 Z"/></g>
<g><path style="opacity:1" fill="#161306" d="M 678.5,342.5 C 682.543,342.446 686.543,343.612 690.5,346C 694.276,348.245 694.276,350.079 690.5,351.5C 685.36,349.939 681.36,346.939 678.5,342.5 Z"/></g>
<g><path style="opacity:1" fill="#f50086" d="M 507.5,343.5 C 510.572,343.183 513.572,343.516 516.5,344.5C 518.033,348.432 519.366,352.432 520.5,356.5C 520.182,357.647 519.516,358.481 518.5,359C 514.249,360.195 509.915,360.695 505.5,360.5C 504.374,355.788 503.041,351.121 501.5,346.5C 503.282,345.016 505.282,344.016 507.5,343.5 Z"/></g>
<g><path style="opacity:1" fill="#c3ab00" d="M 740.5,380.5 C 732.374,367.105 720.374,361.105 704.5,362.5C 702.628,358.588 700.628,354.755 698.5,351C 707.558,348.678 715.892,350.345 723.5,356C 731.515,362.527 737.182,370.694 740.5,380.5 Z"/></g>
<g><path style="opacity:1" fill="#c9b100" d="M 680.5,377.5 C 677.215,377.731 674.715,376.397 673,373.5C 671.331,374.846 670.164,376.513 669.5,378.5C 663.456,383.612 657.289,388.612 651,393.5C 650.667,394.833 650.333,396.167 650,397.5C 645.601,392.769 644.267,387.436 646,381.5C 653.294,375.874 660.294,369.874 667,363.5C 669.65,359.22 671.316,354.553 672,349.5C 678.617,357.722 681.45,367.055 680.5,377.5 Z"/></g>
<g><path style="opacity:1" fill="#f2da30" d="M 761.5,351.5 C 763.467,351.261 765.301,351.594 767,352.5C 768.807,356.756 770.307,361.089 771.5,365.5C 767.874,366.322 764.207,366.989 760.5,367.5C 758.9,367.449 757.4,367.116 756,366.5C 754.353,362.578 753.353,358.578 753,354.5C 755.87,353.307 758.704,352.307 761.5,351.5 Z"/></g>
<g><path style="opacity:1" fill="#bb07a6" d="M 521.5,393.5 C 521.5,394.833 521.5,396.167 521.5,397.5C 521.816,400.978 521.316,404.312 520,407.5C 517.758,409.715 515.258,410.048 512.5,408.5C 509.484,407.657 506.817,406.157 504.5,404C 498.446,396.644 495.779,388.144 496.5,378.5C 487.3,375.441 483.8,369.107 486,359.5C 487.731,361.617 489.898,363.117 492.5,364C 497.531,364.841 502.531,365.841 507.5,367C 519.31,371.775 523.976,380.609 521.5,393.5 Z"/></g>
<g><path style="opacity:1" fill="#ed8100" d="M 628.5,364.5 C 630.229,365.117 631.729,366.117 633,367.5C 632.896,381.872 635.062,395.872 639.5,409.5C 639.167,409.833 638.833,410.167 638.5,410.5C 630.482,398.436 626.816,385.102 627.5,370.5C 627.205,368.265 627.539,366.265 628.5,364.5 Z"/></g>
<g><path style="opacity:1" fill="#7e4400" d="M 628.5,364.5 C 627.539,366.265 627.205,368.265 627.5,370.5C 626.203,368.307 626.203,365.973 627.5,363.5C 628.107,363.624 628.44,363.957 628.5,364.5 Z"/></g>
<g><path style="opacity:1" fill="#cbb200" d="M 669.5,379.5 C 670.659,378.544 671.826,377.544 673,376.5C 674.567,377.856 676.4,378.523 678.5,378.5C 680.634,380.033 683.134,380.7 686,380.5C 699.014,379.723 710.347,375.056 720,366.5C 722.56,367.53 725.06,368.697 727.5,370C 728.517,371.049 728.684,372.216 728,373.5C 716.332,390.279 700.499,396.446 680.5,392C 676.148,390.477 672.481,387.977 669.5,384.5C 668.185,382.801 668.185,381.135 669.5,379.5 Z"/></g>
<g><path style="opacity:1" fill="#362f06" d="M 680.5,377.5 C 680.158,378.338 679.492,378.672 678.5,378.5C 676.4,378.523 674.567,377.856 673,376.5C 671.826,377.544 670.659,378.544 669.5,379.5C 669.5,379.167 669.5,378.833 669.5,378.5C 670.164,376.513 671.331,374.846 673,373.5C 674.715,376.397 677.215,377.731 680.5,377.5 Z"/></g>
<g><path style="opacity:1" fill="#bb07a6" d="M 475.5,377.5 C 480.645,377.492 484.811,379.492 488,383.5C 488.476,389.275 487.81,394.942 486,400.5C 483.173,396.504 479.34,394.17 474.5,393.5C 473.505,388.117 473.839,382.784 475.5,377.5 Z"/></g>
<g><path style="opacity:1" fill="#f70087" d="M 607.5,421.5 C 596.171,425.444 584.504,427.778 572.5,428.5C 567.833,428.5 563.167,428.5 558.5,428.5C 556.473,428.662 554.473,428.495 552.5,428C 550.881,427.764 549.881,426.931 549.5,425.5C 549.005,423.548 548.672,421.548 548.5,419.5C 548.585,417.667 549.252,416.334 550.5,415.5C 567.415,415.968 584.082,413.802 600.5,409C 612.925,405.594 612.592,401.594 599.5,397C 592.167,396.333 584.833,395.667 577.5,395C 569.925,390.682 565.758,384.182 565,375.5C 566.938,378.106 569.438,379.939 572.5,381C 580.482,382.11 588.482,383.11 596.5,384C 598.5,385 600.5,386 602.5,387C 609.458,395.414 614.458,404.914 617.5,415.5C 617.392,416.442 617.059,417.275 616.5,418C 613.511,419.273 610.511,420.439 607.5,421.5 Z"/></g>
<g><path style="opacity:1" fill="#090107" d="M 499.5,379.5 C 504.702,380.289 509.702,381.789 514.5,384C 518.462,386.934 519.962,390.767 519,395.5C 508.242,395.592 501.742,390.258 499.5,379.5 Z"/></g>
<g><path style="opacity:1" fill="#c7af00" d="M 778.5,431.5 C 778.263,432.791 778.596,433.791 779.5,434.5C 779.5,436.5 779.5,438.5 779.5,440.5C 778.833,443.167 778.167,445.833 777.5,448.5C 777.648,434.978 776.148,421.645 773,408.5C 765.347,393.504 753.847,389.671 738.5,397C 730.273,402.945 724.606,410.778 721.5,420.5C 720.28,421.711 719.113,421.711 718,420.5C 716.433,401.958 723.933,388.625 740.5,380.5C 759.292,376.316 770.792,383.649 775,402.5C 777.07,412.063 778.237,421.73 778.5,431.5 Z"/></g>
<g><path style="opacity:1" fill="#c7af00" d="M 674.5,430.5 C 668.925,427.07 665.425,422.07 664,415.5C 662.733,405.348 664.233,395.682 668.5,386.5C 671.81,388.146 674.477,390.48 676.5,393.5C 670.848,405.619 670.181,417.952 674.5,430.5 Z"/></g>
<g><path style="opacity:1" fill="#c9b100" d="M 694.5,552.5 C 705.506,544.995 716.84,537.995 728.5,531.5C 738.806,526.013 749.14,520.513 759.5,515C 754.84,514.057 750.173,513.223 745.5,512.5C 745.5,507.5 745.5,502.5 745.5,497.5C 750.547,498.007 755.547,498.84 760.5,500C 761.141,504.452 761.808,508.952 762.5,513.5C 775.558,506.598 788.225,499.098 800.5,491C 808.279,485.521 815.112,479.021 821,471.5C 837.87,450.332 843.87,426.332 839,399.5C 834.996,390.745 831.163,381.912 827.5,373C 833.501,373.226 839.001,371.726 844,368.5C 846.87,372.454 848.537,376.788 849,381.5C 845.094,383.702 840.927,385.202 836.5,386C 838.739,390.315 840.572,394.815 842,399.5C 851.351,432.427 845.018,461.76 823,487.5C 814.02,496.151 804.186,503.651 793.5,510C 762.505,527.496 731.838,545.496 701.5,564C 695.072,568.423 689.239,573.59 684,579.5C 681.14,583.315 679.807,587.648 680,592.5C 675.383,586.947 673.383,580.613 674,573.5C 679.695,565.306 686.528,558.306 694.5,552.5 Z"/></g>
<g><path style="opacity:1" fill="#f3633e" d="M 621.5,392.5 C 623.924,392.192 626.257,392.526 628.5,393.5C 630.376,398.461 632.043,403.461 633.5,408.5C 629.396,408.534 625.396,409.201 621.5,410.5C 620.5,410.167 619.5,409.833 618.5,409.5C 616.833,404.833 615.167,400.167 613.5,395.5C 616.184,394.247 618.85,393.247 621.5,392.5 Z"/></g>
<g><path style="opacity:1" fill="#f30085" d="M 561.5,394.5 C 564.833,394.5 568.167,394.5 571.5,394.5C 573.039,399.784 574.373,405.118 575.5,410.5C 570.474,411.395 565.474,411.395 560.5,410.5C 558.154,405.771 556.821,400.771 556.5,395.5C 558.415,395.784 560.081,395.451 561.5,394.5 Z"/></g>
<g><path style="opacity:0.273" fill="#0a0203" d="M 521.5,397.5 C 524.918,406.815 530.252,414.982 537.5,422C 539.078,423.094 540.745,423.928 542.5,424.5C 542.938,425.506 543.604,425.506 544.5,424.5C 545.84,429.013 547.673,433.347 550,437.5C 550.333,442.833 550.667,448.167 551,453.5C 554.696,449.142 559.03,445.475 564,442.5C 564.301,439.493 564.135,436.493 563.5,433.5C 563.5,432.167 563.5,430.833 563.5,429.5C 566.713,429.81 569.713,429.477 572.5,428.5C 584.504,427.778 596.171,425.444 607.5,421.5C 607.5,422.167 607.5,422.833 607.5,423.5C 606.504,423.414 605.671,423.748 605,424.5C 604.174,427.793 603.674,431.126 603.5,434.5C 602.833,435.167 602.167,435.833 601.5,436.5C 601.279,433.903 600.779,433.903 600,436.5C 597.041,447.962 600.208,457.129 609.5,464C 615.619,467.394 621.952,470.228 628.5,472.5C 629.348,473.625 630.348,473.625 631.5,472.5C 636.097,480.093 641.431,487.093 647.5,493.5C 647.5,493.833 647.5,494.167 647.5,494.5C 643.876,501.541 641.543,509.041 640.5,517C 640.494,519.3 640.994,521.466 642,523.5C 644.667,526.167 647.333,528.833 650,531.5C 647.199,514.938 652.365,501.438 665.5,491C 671.66,487.127 678.327,485.793 685.5,487C 679.72,491.72 673.053,493.72 665.5,493C 662.931,495.479 660.598,498.146 658.5,501C 661.127,502.897 663.961,504.397 667,505.5C 669.976,513.962 674.81,521.129 681.5,527C 693.359,532.943 703.192,530.443 711,519.5C 711.499,523.152 711.665,526.818 711.5,530.5C 716.805,531.194 722.138,531.528 727.5,531.5C 727.833,531.5 728.167,531.5 728.5,531.5C 716.84,537.995 705.506,544.995 694.5,552.5C 692.833,552.5 691.167,552.5 689.5,552.5C 690.568,551.566 691.901,551.232 693.5,551.5C 692.5,546.833 691.5,542.167 690.5,537.5C 686.452,537.395 682.452,537.728 678.5,538.5C 678.5,538.167 678.5,537.833 678.5,537.5C 677.398,533.292 675.731,529.292 673.5,525.5C 669.815,522.924 666.149,523.09 662.5,526C 656.88,532.742 651.38,539.575 646,546.5C 637.424,555.363 626.924,558.863 614.5,557C 608.266,555.097 602.766,551.93 598,547.5C 604.716,560.826 615.716,567.826 631,568.5C 637.392,569.034 643.225,567.534 648.5,564C 655.342,557.75 661.342,550.917 666.5,543.5C 661.259,560.741 650.592,573.407 634.5,581.5C 628.858,586.137 623.191,590.803 617.5,595.5C 610.703,588.202 603.703,581.035 596.5,574C 593.833,573.333 591.167,573.333 588.5,574C 583.261,576.304 577.928,577.97 572.5,579C 574.761,576.228 576.261,573.062 577,569.5C 577.667,561.5 577.667,553.5 577,545.5C 573.302,541.069 568.802,537.736 563.5,535.5C 566.19,531.15 567.356,526.483 567,521.5C 565.116,526.329 562.949,530.995 560.5,535.5C 551.438,532.801 543.105,528.801 535.5,523.5C 538.796,519.702 542.296,516.036 546,512.5C 547.421,510.595 548.588,508.595 549.5,506.5C 550.461,508.265 550.795,510.265 550.5,512.5C 550.331,517.691 549.331,522.691 547.5,527.5C 549.35,529.572 551.683,530.905 554.5,531.5C 555.986,526.802 556.653,521.968 556.5,517C 556.254,511.489 555.921,505.989 555.5,500.5C 558.247,501.956 561.08,503.289 564,504.5C 566.992,502 569.492,499 571.5,495.5C 568.555,493.444 565.388,491.777 562,490.5C 559.583,493.022 557.417,495.688 555.5,498.5C 554.427,492.917 552.427,487.584 549.5,482.5C 567.447,490.873 585.781,498.373 604.5,505C 610.167,507.833 615.833,510.667 621.5,513.5C 630.045,504.37 633.212,493.703 631,481.5C 629.167,478.333 626.667,475.833 623.5,474C 611.293,468.6 598.96,463.6 586.5,459C 589.977,454.545 592.811,449.712 595,444.5C 596.523,436.184 593.023,431.851 584.5,431.5C 581.205,431.295 578.205,432.128 575.5,434C 571.667,438.5 567.833,443 564,447.5C 560.605,455.873 562.772,462.373 570.5,467C 585.249,473.139 599.916,479.472 614.5,486C 619.518,488.783 622.518,492.616 623.5,497.5C 605.793,490.431 588.127,483.264 570.5,476C 552.586,469.151 537.753,458.318 526,443.5C 523.068,437.865 521.901,431.865 522.5,425.5C 521.041,425.433 519.708,425.766 518.5,426.5C 518.5,425.5 518.5,424.5 518.5,423.5C 536.646,427.49 543.98,438.49 540.5,456.5C 542.576,458.288 544.743,459.954 547,461.5C 547.103,443.206 540.27,428.04 526.5,416C 521.393,412.935 516.06,410.769 510.5,409.5C 511.492,409.672 512.158,409.338 512.5,408.5C 515.258,410.048 517.758,409.715 520,407.5C 521.316,404.312 521.816,400.978 521.5,397.5 Z"/></g>
<g><path style="opacity:1" fill="#ef0083" d="M 521.5,393.5 C 523.394,396.939 525.56,400.272 528,403.5C 532.071,406.75 535.904,410.083 539.5,413.5C 540.297,417.223 541.297,420.89 542.5,424.5C 540.745,423.928 539.078,423.094 537.5,422C 530.252,414.982 524.918,406.815 521.5,397.5C 521.5,396.167 521.5,394.833 521.5,393.5 Z"/></g>
<g><path style="opacity:1" fill="#f70087" d="M 445.5,488.5 C 446.167,488.833 446.833,489.167 447.5,489.5C 452.242,490.358 456.909,491.191 461.5,492C 458.333,489.5 455.167,487 452,484.5C 451.369,479.655 452.035,474.988 454,470.5C 457.947,472.78 461.613,475.447 465,478.5C 464.512,483.447 464.012,488.447 463.5,493.5C 476.16,494.632 488.494,497.299 500.5,501.5C 501.583,500.635 501.749,499.635 501,498.5C 499.542,496.04 497.709,493.873 495.5,492C 487.152,486.825 478.485,482.158 469.5,478C 462.22,473.594 459.387,467.094 461,458.5C 457.642,461.031 454.476,463.698 451.5,466.5C 450.51,460.355 450.177,454.022 450.5,447.5C 461.583,438.445 472.917,429.612 484.5,421C 482.966,420.077 481.299,419.577 479.5,419.5C 474.024,420.571 469.024,422.738 464.5,426C 453.466,436.702 442.133,447.036 430.5,457C 424.828,459.947 418.828,461.78 412.5,462.5C 407.89,462.612 404.057,460.945 401,457.5C 398.526,451.748 395.86,446.081 393,440.5C 392.333,437.167 392.333,433.833 393,430.5C 398.185,421.246 404.518,420.246 412,427.5C 414.498,432.327 416.165,437.327 417,442.5C 414.864,438.672 411.697,437.172 407.5,438C 403.075,439.703 400.741,442.87 400.5,447.5C 409.639,448.299 417.972,446.132 425.5,441C 436.102,432.4 446.102,423.067 455.5,413C 459.241,410.268 463.241,407.934 467.5,406C 471.741,404.543 476.074,404.209 480.5,405C 490.141,411.16 495.475,419.993 496.5,431.5C 486.244,439.31 475.91,447.144 465.5,455C 467.539,457.374 469.872,459.374 472.5,461C 480.779,464.473 488.779,468.473 496.5,473C 499.372,475.537 501.872,478.37 504,481.5C 505.942,494.558 505.442,507.558 502.5,520.5C 501.583,519.873 500.583,519.539 499.5,519.5C 495.814,517.205 491.814,515.372 487.5,514C 454.106,509.039 423.106,497.873 394.5,480.5C 386.001,474.163 379.501,466.163 375,456.5C 367.034,436.189 371.867,419.689 389.5,407C 412.169,395.837 429.836,401.171 442.5,423C 440.667,424.833 438.833,426.667 437,428.5C 426.13,418.544 413.297,414.377 398.5,416C 388.869,417.65 381.369,422.483 376,430.5C 374.699,439.264 377.032,446.93 383,453.5C 400.057,471.782 420.89,483.448 445.5,488.5 Z"/></g>
<g><path style="opacity:1" fill="#f78600" d="M 658.5,402.5 C 659.833,402.5 661.167,402.5 662.5,402.5C 662.5,407.167 662.5,411.833 662.5,416.5C 649.64,420.029 640.973,428.029 636.5,440.5C 632.098,440.157 628.431,438.49 625.5,435.5C 630.223,418.111 641.223,407.111 658.5,402.5 Z"/></g>
<g><path style="opacity:1" fill="#c9b100" d="M 745.5,405.5 C 751.739,404.536 756.239,406.869 759,412.5C 760.645,415.622 762.145,418.788 763.5,422C 754.746,416.139 747.746,417.973 742.5,427.5C 742.833,427.833 743.167,428.167 743.5,428.5C 753.877,429.911 764.21,429.578 774.5,427.5C 775.314,432.119 775.647,436.786 775.5,441.5C 767.179,442.352 758.846,442.519 750.5,442C 742.99,438.531 738.156,432.697 736,424.5C 733.919,415.327 737.086,408.994 745.5,405.5 Z"/></g>
<g><path style="opacity:1" fill="#f1d930" d="M 789.5,405.5 C 791.467,405.261 793.301,405.594 795,406.5C 796.598,410.461 798.098,414.461 799.5,418.5C 795.299,420.234 790.965,421.567 786.5,422.5C 785.353,422.182 784.519,421.516 784,420.5C 782.833,417 781.667,413.5 780.5,410C 780.645,409.228 780.978,408.561 781.5,408C 784.379,407.454 787.046,406.621 789.5,405.5 Z"/></g>
<g><path style="opacity:1" fill="#f10084" d="M 510.5,409.5 C 516.06,410.769 521.393,412.935 526.5,416C 540.27,428.04 547.103,443.206 547,461.5C 544.743,459.954 542.576,458.288 540.5,456.5C 543.98,438.49 536.646,427.49 518.5,423.5C 515.223,423.784 512.057,423.451 509,422.5C 506.921,418.347 505.421,414.014 504.5,409.5C 506.5,409.5 508.5,409.5 510.5,409.5 Z"/></g>
<g><path style="opacity:1" fill="#450827" d="M 540.5,411.5 C 541.803,415.749 543.136,420.082 544.5,424.5C 543.604,425.506 542.938,425.506 542.5,424.5C 541.297,420.89 540.297,417.223 539.5,413.5C 540.338,413.158 540.672,412.492 540.5,411.5 Z"/></g>
<g><path style="opacity:1" fill="#c6ae00" d="M 731.5,417.5 C 732.794,419.048 733.461,421.048 733.5,423.5C 733.333,425.5 733.167,427.5 733,429.5C 725.319,431.5 718.986,435.5 714,441.5C 711.485,438.494 710.151,435.16 710,431.5C 716.19,425.166 723.357,420.5 731.5,417.5 Z"/></g>
<g><path style="opacity:1" fill="#53072e" d="M 550.5,415.5 C 549.252,416.334 548.585,417.667 548.5,419.5C 548.672,421.548 549.005,423.548 549.5,425.5C 548.833,425.5 548.5,425.833 548.5,426.5C 547.593,424.343 546.927,422.01 546.5,419.5C 547.451,418.081 547.784,416.415 547.5,414.5C 548.791,414.263 549.791,414.596 550.5,415.5 Z"/></g>
<g><path style="opacity:1" fill="#f6643e" d="M 607.5,423.5 C 611.159,424.413 614.659,425.746 618,427.5C 617.2,432.069 616.7,436.736 616.5,441.5C 612.307,441.047 608.307,439.881 604.5,438C 603.663,436.989 603.33,435.822 603.5,434.5C 603.674,431.126 604.174,427.793 605,424.5C 605.671,423.748 606.504,423.414 607.5,423.5 Z"/></g>
<g><path style="opacity:1" fill="#f70088" d="M 549.5,482.5 C 542.724,477.933 536.057,473.1 529.5,468C 515.737,456.778 512.07,442.945 518.5,426.5C 519.708,425.766 521.041,425.433 522.5,425.5C 521.901,431.865 523.068,437.865 526,443.5C 537.753,458.318 552.586,469.151 570.5,476C 588.127,483.264 605.793,490.431 623.5,497.5C 622.518,492.616 619.518,488.783 614.5,486C 599.916,479.472 585.249,473.139 570.5,467C 562.772,462.373 560.605,455.873 564,447.5C 567.833,443 571.667,438.5 575.5,434C 578.205,432.128 581.205,431.295 584.5,431.5C 593.023,431.851 596.523,436.184 595,444.5C 592.811,449.712 589.977,454.545 586.5,459C 598.96,463.6 611.293,468.6 623.5,474C 626.667,475.833 629.167,478.333 631,481.5C 633.212,493.703 630.045,504.37 621.5,513.5C 615.833,510.667 610.167,507.833 604.5,505C 585.781,498.373 567.447,490.873 549.5,482.5 Z"/></g>
<g><path style="opacity:1" fill="#f6de31" d="M 780.5,426.5 C 794.953,425.302 804.12,431.635 808,445.5C 810.534,454.367 811.867,463.367 812,472.5C 807.361,469.173 802.195,467.006 796.5,466C 788.133,465.741 779.8,465.241 771.5,464.5C 769.735,463.539 767.735,463.205 765.5,463.5C 745.913,463.219 731.58,454.552 722.5,437.5C 723.378,435.061 725.045,434.228 727.5,435C 742.311,447.446 758.978,451.946 777.5,448.5C 778.167,445.833 778.833,443.167 779.5,440.5C 779.211,444.106 779.544,447.606 780.5,451C 789.458,450.892 798.124,452.392 806.5,455.5C 805.429,448.899 801.429,444.399 794.5,442C 790.23,440.925 785.897,440.425 781.5,440.5C 780.908,437.873 780.575,435.206 780.5,432.5C 780.5,430.5 780.5,428.5 780.5,426.5 Z"/></g>
<g><path style="opacity:1" fill="#0c0105" d="M 549.5,425.5 C 549.881,426.931 550.881,427.764 552.5,428C 554.473,428.495 556.473,428.662 558.5,428.5C 559.209,429.404 560.209,429.737 561.5,429.5C 558.856,431.969 556.023,434.302 553,436.5C 550.682,433.531 549.182,430.198 548.5,426.5C 548.5,425.833 548.833,425.5 549.5,425.5 Z"/></g>
<g><path style="opacity:1" fill="#590030" d="M 558.5,428.5 C 563.167,428.5 567.833,428.5 572.5,428.5C 569.713,429.477 566.713,429.81 563.5,429.5C 563.5,430.833 563.5,432.167 563.5,433.5C 562.833,432.167 562.167,430.833 561.5,429.5C 560.209,429.737 559.209,429.404 558.5,428.5 Z"/></g>
<g><path style="opacity:1" fill="#4f4608" d="M 780.5,426.5 C 780.5,428.5 780.5,430.5 780.5,432.5C 779.662,432.842 779.328,433.508 779.5,434.5C 778.596,433.791 778.263,432.791 778.5,431.5C 779.167,429.833 779.833,428.167 780.5,426.5 Z"/></g>
<g><path style="opacity:1" fill="#f58500" d="M 618.5,432.5 C 620.144,434.919 622.144,437.086 624.5,439C 636.527,442.872 648.86,445.205 661.5,446C 665.229,446.187 667.896,447.853 669.5,451C 668.178,459.61 666.345,468.11 664,476.5C 663.481,477.516 662.647,478.182 661.5,478.5C 653.117,477.723 644.784,476.556 636.5,475C 634.262,470.083 632.929,464.916 632.5,459.5C 643.124,461.425 653.791,463.091 664.5,464.5C 664.5,463.5 664.5,462.5 664.5,461.5C 649.791,460.048 635.457,456.882 621.5,452C 620.333,450.833 619.167,449.667 618,448.5C 617.685,443.162 617.852,437.828 618.5,432.5 Z"/></g>
<g><path style="opacity:1" fill="#f4633e" d="M 601.5,436.5 C 604.69,447.688 612.023,454.355 623.5,456.5C 624.416,462.08 626.416,467.247 629.5,472C 629.272,472.399 628.938,472.565 628.5,472.5C 621.952,470.228 615.619,467.394 609.5,464C 600.208,457.129 597.041,447.962 600,436.5C 600.779,433.903 601.279,433.903 601.5,436.5 Z"/></g>
<g><path style="opacity:1" fill="#bb07a6" d="M 496.5,438.5 C 502.18,438.404 506.847,440.404 510.5,444.5C 509.577,449.487 507.91,454.154 505.5,458.5C 502.117,456.872 498.617,455.539 495,454.5C 492.046,457.517 490.546,461.184 490.5,465.5C 485.5,464.167 480.5,462.833 475.5,461.5C 476.63,456.112 477.963,450.778 479.5,445.5C 484.097,447.032 488.764,448.365 493.5,449.5C 494.297,445.777 495.297,442.11 496.5,438.5 Z"/></g>
<g><path style="opacity:1" fill="#f9e131" d="M 333.5,447.5 C 333.821,452.695 333.487,457.695 332.5,462.5C 331.571,461.685 330.571,460.852 329.5,460C 325.579,459.797 321.745,459.297 318,458.5C 317.409,452.502 316.909,446.502 316.5,440.5C 321.705,440.134 326.705,440.967 331.5,443C 333.037,444.11 333.703,445.61 333.5,447.5 Z"/></g>
<g><path style="opacity:1" fill="#bda600" d="M 705.5,439.5 C 707.943,440.499 709.609,442.332 710.5,445C 707.171,451.404 705.671,458.237 706,465.5C 701.513,456.957 701.346,448.291 705.5,439.5 Z"/></g>
<g><path style="opacity:0.283" fill="#0f0c03" d="M 780.5,432.5 C 780.575,435.206 780.908,437.873 781.5,440.5C 785.897,440.425 790.23,440.925 794.5,442C 801.429,444.399 805.429,448.899 806.5,455.5C 798.124,452.392 789.458,450.892 780.5,451C 779.544,447.606 779.211,444.106 779.5,440.5C 779.5,438.5 779.5,436.5 779.5,434.5C 779.328,433.508 779.662,432.842 780.5,432.5 Z"/></g>
<g><path style="opacity:1" fill="#0d0105" d="M 570.5,443.5 C 577.331,442.051 582.831,444.051 587,449.5C 587.725,452.377 587.225,455.043 585.5,457.5C 584.277,458.614 582.944,458.781 581.5,458C 577.096,456.223 573.596,453.39 571,449.5C 570.505,447.527 570.338,445.527 570.5,443.5 Z"/></g>
<g><path style="opacity:1" fill="#fd008a" d="M 446.5,445.5 C 447.495,457.655 447.829,469.989 447.5,482.5C 447.5,483.833 447.5,485.167 447.5,486.5C 446.833,476.833 446.167,467.167 445.5,457.5C 445.681,454.603 445.348,451.77 444.5,449C 444.978,447.697 445.645,446.531 446.5,445.5 Z"/></g>
<g><path style="opacity:1" fill="#c6ae00" d="M 717.5,447.5 C 721.262,447.652 724.928,448.319 728.5,449.5C 729.495,454.792 729.828,460.125 729.5,465.5C 724.089,465.875 719.089,464.875 714.5,462.5C 714.334,458.154 714.501,453.821 715,449.5C 715.417,448.244 716.25,447.577 717.5,447.5 Z"/></g>
<g><path style="opacity:1" fill="#f5643e" d="M 441.5,453.5 C 442.748,454.334 443.415,455.667 443.5,457.5C 444.423,462.483 444.59,467.483 444,472.5C 439.636,475.696 435.136,478.696 430.5,481.5C 424.348,478.923 418.348,476.09 412.5,473C 423.436,468.204 433.102,461.704 441.5,453.5 Z"/></g>
<g><path style="opacity:1" fill="#8e004d" d="M 446.5,445.5 C 446.56,444.957 446.893,444.624 447.5,444.5C 448.825,457.327 448.825,469.994 447.5,482.5C 447.829,469.989 447.495,457.655 446.5,445.5 Z"/></g>
<g><path style="opacity:1" fill="#5f5300" d="M 717.5,447.5 C 716.25,447.577 715.417,448.244 715,449.5C 714.501,453.821 714.334,458.154 714.5,462.5C 713.352,458.019 713.185,453.352 714,448.5C 714.924,446.505 716.09,446.172 717.5,447.5 Z"/></g>
<g><path style="opacity:1" fill="#8c7c1c" d="M 333.5,447.5 C 334.489,452.975 334.822,458.642 334.5,464.5C 334.167,464.5 333.833,464.5 333.5,464.5C 333.167,463.833 332.833,463.167 332.5,462.5C 333.487,457.695 333.821,452.695 333.5,447.5 Z"/></g>
<g><path style="opacity:1" fill="#5c0032" d="M 450.5,447.5 C 450.177,454.022 450.51,460.355 451.5,466.5C 451.44,467.043 451.107,467.376 450.5,467.5C 449.182,460.678 449.182,454.011 450.5,447.5 Z"/></g>
<g><path style="opacity:1" fill="#f6643e" d="M 333.5,464.5 C 333.833,464.5 334.167,464.5 334.5,464.5C 349.346,481.109 367.68,486.442 389.5,480.5C 390.925,480.623 392.258,480.957 393.5,481.5C 398.137,484.824 402.804,488.157 407.5,491.5C 405.028,492.896 402.362,493.73 399.5,494C 398.484,494.519 397.818,495.353 397.5,496.5C 398.726,500.448 399.226,504.448 399,508.5C 395.932,518.703 392.265,528.703 388,538.5C 385.181,540.377 382.347,540.71 379.5,539.5C 382.326,532.515 384.826,525.515 387,518.5C 379.769,524.531 372.269,530.198 364.5,535.5C 362.582,530.66 361.749,525.66 362,520.5C 368.08,516.21 374.247,512.043 380.5,508C 384.535,504.3 388.202,500.3 391.5,496C 364.182,499.786 344.849,489.286 333.5,464.5 Z"/></g>
<g><path style="opacity:1" fill="#bb07a6" d="M 498.5,464.5 C 507.336,472.853 517.336,474.52 528.5,469.5C 532.482,472.152 536.149,475.152 539.5,478.5C 536.908,481.543 533.575,483.376 529.5,484C 513.935,485.952 503.602,479.452 498.5,464.5 Z"/></g>
<g><path style="opacity:1" fill="#c6ae00" d="M 765.5,463.5 C 767.735,463.205 769.735,463.539 771.5,464.5C 779.098,473.098 780.432,482.598 775.5,493C 770.705,495.969 765.705,496.302 760.5,494C 746.235,486.906 736.902,475.74 732.5,460.5C 732.667,459.833 732.833,459.167 733,458.5C 736.702,471.368 744.869,479.701 757.5,483.5C 768.465,481.944 772.798,475.611 770.5,464.5C 768.585,464.784 766.919,464.451 765.5,463.5 Z"/></g>
<g><path style="opacity:1" fill="#c9b100" d="M 753.5,465.5 C 756.777,465.216 759.943,465.549 763,466.5C 764.167,470 765.333,473.5 766.5,477C 766.095,477.945 765.428,478.612 764.5,479C 760.527,479.998 756.527,480.331 752.5,480C 750.459,475.711 749.126,471.211 748.5,466.5C 750.415,466.784 752.081,466.451 753.5,465.5 Z"/></g>
<g><path style="opacity:1" fill="#7e4500" d="M 714.5,470.5 C 713.596,471.209 713.263,472.209 713.5,473.5C 712.371,471.372 712.204,469.039 713,466.5C 713.41,467.901 713.91,469.234 714.5,470.5 Z"/></g>
<g><path style="opacity:1" fill="#750040" d="M 445.5,457.5 C 446.167,467.167 446.833,476.833 447.5,486.5C 447.5,487.5 447.5,488.5 447.5,489.5C 446.833,489.167 446.167,488.833 445.5,488.5C 445.5,478.167 445.5,467.833 445.5,457.5 Z"/></g>
<g><path style="opacity:1" fill="#f48500" d="M 713.5,473.5 C 713.263,472.209 713.596,471.209 714.5,470.5C 715.894,472.708 717.894,474.208 720.5,475C 726.328,476.943 731.995,479.276 737.5,482C 738.191,483.067 738.691,484.234 739,485.5C 739.667,492.833 739.667,500.167 739,507.5C 737.833,510.909 735.5,512.909 732,513.5C 725.051,511.884 720.717,507.551 719,500.5C 717.167,505.161 715.334,509.827 713.5,514.5C 718.005,515.641 722.505,516.641 727,517.5C 727.499,522.155 727.666,526.821 727.5,531.5C 722.138,531.528 716.805,531.194 711.5,530.5C 711.665,526.818 711.499,523.152 711,519.5C 703.192,530.443 693.359,532.943 681.5,527C 674.81,521.129 669.976,513.962 667,505.5C 663.961,504.397 661.127,502.897 658.5,501C 660.598,498.146 662.931,495.479 665.5,493C 673.053,493.72 679.72,491.72 685.5,487C 678.327,485.793 671.66,487.127 665.5,491C 652.365,501.438 647.199,514.938 650,531.5C 647.333,528.833 644.667,526.167 642,523.5C 640.994,521.466 640.494,519.3 640.5,517C 641.543,509.041 643.876,501.541 647.5,494.5C 658.253,480.022 672.587,474.356 690.5,477.5C 688.978,480.192 687.811,482.859 687,485.5C 694.401,476.797 697.234,466.797 695.5,455.5C 689.768,459.943 684.602,464.943 680,470.5C 677,461.833 674,453.167 671,444.5C 669.608,439.093 670.774,434.426 674.5,430.5C 678.789,428.046 682.289,424.712 685,420.5C 689.069,426.693 689.403,433.027 686,439.5C 682.297,442.867 678.964,446.534 676,450.5C 675.333,451.833 675.333,453.167 676,454.5C 681.958,450.211 687.624,445.544 693,440.5C 693.831,433.808 693.664,427.142 692.5,420.5C 686.303,417.122 679.636,415.122 672.5,414.5C 673.352,410.869 674.019,407.202 674.5,403.5C 680.9,404.368 686.567,406.868 691.5,411C 693.121,413.166 693.955,415.666 694,418.5C 695.229,413.471 697.229,408.804 700,404.5C 701.886,401.758 704.386,400.091 707.5,399.5C 707.666,404.511 707.499,409.511 707,414.5C 702.474,418.225 699.474,422.892 698,428.5C 698.329,440.988 698.829,453.488 699.5,466C 699.333,471.5 699.167,477 699,482.5C 695.601,498.398 685.768,506.398 669.5,506.5C 670.93,509.433 672.93,511.933 675.5,514C 691.473,520.021 702.806,515.021 709.5,499C 707.36,494.919 704.026,492.253 699.5,491C 698.499,488.302 698.999,485.802 701,483.5C 704.824,487.814 708.157,492.481 711,497.5C 712.92,494.162 714.42,490.662 715.5,487C 713.975,482.63 713.308,478.13 713.5,473.5 Z"/></g>
<g><path style="opacity:1" fill="#f4dc30" d="M 789.5,472.5 C 792.518,472.335 795.518,472.502 798.5,473C 800.34,477.021 801.674,481.188 802.5,485.5C 797.892,486.923 793.225,487.756 788.5,488C 786.544,483.97 784.878,479.803 783.5,475.5C 785.444,474.199 787.444,473.199 789.5,472.5 Z"/></g>
<g><path style="opacity:1" fill="#e77e00" d="M 647.5,493.5 C 641.431,487.093 636.097,480.093 631.5,472.5C 628.954,467.402 626.954,462.068 625.5,456.5C 626.776,455.355 628.109,455.355 629.5,456.5C 630.145,471.454 637.145,482.121 650.5,488.5C 649.048,489.94 648.048,491.606 647.5,493.5 Z"/></g>
<g><path style="opacity:1" fill="#bb07a6" d="M 549.5,482.5 C 552.427,487.584 554.427,492.917 555.5,498.5C 555.5,499.167 555.5,499.833 555.5,500.5C 555.921,505.989 556.254,511.489 556.5,517C 556.653,521.968 555.986,526.802 554.5,531.5C 551.683,530.905 549.35,529.572 547.5,527.5C 549.331,522.691 550.331,517.691 550.5,512.5C 551.634,510.034 551.801,507.367 551,504.5C 550.283,505.044 549.783,505.711 549.5,506.5C 548.588,508.595 547.421,510.595 546,512.5C 542.296,516.036 538.796,519.702 535.5,523.5C 526.738,529.706 521.572,538.039 520,548.5C 515.371,540.955 514.371,532.955 517,524.5C 523.295,515.871 530.628,508.205 539,501.5C 543.542,495.67 547.042,489.336 549.5,482.5 Z"/></g>
<g><path style="opacity:0.174" fill="#060202" d="M 394.5,480.5 C 423.106,497.873 454.106,509.039 487.5,514C 491.814,515.372 495.814,517.205 499.5,519.5C 495.526,523.78 492.86,528.78 491.5,534.5C 492.086,540.09 493.586,545.424 496,550.5C 496.667,552.167 496.667,553.833 496,555.5C 490.711,547.927 487.378,539.593 486,530.5C 482.555,535.055 479.888,540.055 478,545.5C 477.87,549.964 478.703,554.297 480.5,558.5C 478.222,565 475.556,571.334 472.5,577.5C 468.814,573.98 464.981,570.647 461,567.5C 459.355,576.584 462.355,583.584 470,588.5C 472.026,587.48 473.359,585.813 474,583.5C 476.229,576.138 479.229,569.138 483,562.5C 484.833,565.5 486.667,568.5 488.5,571.5C 490.509,568.804 492.509,566.137 494.5,563.5C 494.5,563.833 494.5,564.167 494.5,564.5C 497.485,578.831 506.152,584.831 520.5,582.5C 522.06,584.156 523.06,586.156 523.5,588.5C 523.784,591.852 524.95,594.852 527,597.5C 529.833,600.333 532.667,603.167 535.5,606C 553.004,616.253 570.671,626.253 588.5,636C 601.733,649.076 599.733,651.743 582.5,644C 575.995,640.847 571.995,635.68 570.5,628.5C 569.246,646.106 577.246,657.273 594.5,662C 596.441,662.743 598.274,662.576 600,661.5C 601.867,650.028 599.867,639.361 594,629.5C 588.812,623.832 582.979,618.998 576.5,615C 561.901,608.701 547.901,601.368 534.5,593C 530.288,590.289 526.954,586.789 524.5,582.5C 524.5,581.833 524.5,581.167 524.5,580.5C 537.452,573.871 546.119,563.538 550.5,549.5C 548.781,547.648 546.781,546.314 544.5,545.5C 545.167,545.5 545.5,545.167 545.5,544.5C 549.483,546.157 553.483,547.823 557.5,549.5C 554.738,559.513 556.738,568.346 563.5,576C 565.888,577.861 568.554,579.194 571.5,580C 566.831,581.505 562.164,581.838 557.5,581C 562.7,588.1 569.7,591.767 578.5,592C 581.983,595.239 585.65,598.239 589.5,601C 593.167,601.667 596.833,601.667 600.5,601C 605.761,599.538 611.094,598.372 616.5,597.5C 612.497,605.213 612.831,612.88 617.5,620.5C 618.11,621.391 618.443,622.391 618.5,623.5C 613.5,623.5 608.5,623.5 603.5,623.5C 603.669,628.181 604.002,632.848 604.5,637.5C 609.305,638.487 614.305,638.821 619.5,638.5C 608.651,665.572 607.817,692.905 617,720.5C 617.377,721.942 618.21,722.942 619.5,723.5C 621.592,726.681 623.925,729.681 626.5,732.5C 622.89,735.101 619.223,734.934 615.5,732C 611.224,727.919 607.557,723.419 604.5,718.5C 600.434,724.742 595.767,730.575 590.5,736C 583.184,742.333 574.684,746.166 565,747.5C 563.033,747.458 561.199,746.958 559.5,746C 555.546,741.258 551.713,736.424 548,731.5C 545.906,728.897 543.406,726.897 540.5,725.5C 539.062,725.719 537.729,726.219 536.5,727C 532.256,731.915 527.423,736.081 522,739.5C 522.761,755.227 520.761,770.56 516,785.5C 501.584,809.334 486.917,833.001 472,856.5C 464.296,869.613 458.963,883.613 456,898.5C 454.848,908.069 455.848,917.402 459,926.5C 462,932.833 465,939.167 468,945.5C 468.667,947.833 468.667,950.167 468,952.5C 461.347,963.444 452.181,966.611 440.5,962C 433.653,956.805 430.153,949.972 430,941.5C 432.339,937.672 434.839,934.005 437.5,930.5C 434.67,923.505 431.836,916.505 429,909.5C 425.069,894.4 426.402,879.733 433,865.5C 439.499,848.167 447.833,831.834 458,816.5C 459.202,812.207 458.035,808.707 454.5,806C 448.178,805.231 442.844,802.564 438.5,798C 411.213,799.534 392.546,787.701 382.5,762.5C 377.5,759 372.5,755.5 367.5,752C 366.216,751.316 365.049,751.483 364,752.5C 355.954,774.194 340.287,785.528 317,786.5C 292.966,784.801 275.633,773.134 265,751.5C 263.259,746.946 261.926,742.279 261,737.5C 260.632,736.09 259.799,735.09 258.5,734.5C 225.578,757.197 189.078,769.864 149,772.5C 129.477,772.078 111.311,766.911 94.5,757C 88.8333,753.333 83.1667,749.667 77.5,746C 66.8429,747.563 58.3429,744.063 52,735.5C 49.1447,730.101 46.978,724.435 45.5,718.5C 50.9301,705.957 60.2635,701.79 73.5,706C 81.4171,711.929 87.0837,719.596 90.5,729C 112.082,740.985 135.082,744.652 159.5,740C 190.782,734.355 218.782,721.688 243.5,702C 244.804,701.196 245.471,700.029 245.5,698.5C 243.082,694.665 240.915,690.665 239,686.5C 237.408,677.187 240.575,670.02 248.5,665C 254.481,663.418 260.147,664.418 265.5,668C 267.641,669.308 269.641,670.808 271.5,672.5C 272.086,672.291 272.586,671.957 273,671.5C 273.926,665.846 274.259,660.18 274,654.5C 273.333,653.833 272.667,653.167 272,652.5C 260.608,658.61 248.441,661.943 235.5,662.5C 223.854,661.896 213.188,658.396 203.5,652C 193.222,644.722 183.889,636.389 175.5,627C 163.88,624.049 156.046,616.882 152,605.5C 151.333,603.167 151.333,600.833 152,598.5C 161.191,584.864 171.191,584.197 182,596.5C 185.194,601.554 187.861,606.888 190,612.5C 204.367,625.952 221.2,630.452 240.5,626C 246.883,624.65 252.883,622.317 258.5,619C 259.293,617.915 259.96,616.748 260.5,615.5C 257.645,605.37 255.978,595.037 255.5,584.5C 260.555,559.151 275.888,547.651 301.5,550C 304.167,548.667 306.167,546.667 307.5,544C 296.738,528.479 293.572,511.646 298,493.5C 299.451,491.536 301.284,490.203 303.5,489.5C 303.205,491.735 303.539,493.735 304.5,495.5C 303.748,516.762 311.081,534.596 326.5,549C 330.309,552.238 334.642,554.404 339.5,555.5C 339.194,558.385 339.527,561.052 340.5,563.5C 342.115,578.423 349.782,588.757 363.5,594.5C 363.56,595.043 363.893,595.376 364.5,595.5C 365.484,592.572 365.817,589.572 365.5,586.5C 365.5,584.833 365.5,583.167 365.5,581.5C 360.48,581.324 356.146,579.491 352.5,576C 347.818,570.815 344.151,564.982 341.5,558.5C 341.167,557.833 340.833,557.167 340.5,556.5C 349.734,558.055 359.067,558.722 368.5,558.5C 380.557,558.594 392.557,557.928 404.5,556.5C 404.904,550.823 404.237,545.323 402.5,540C 394.484,540.502 386.484,541.335 378.5,542.5C 378.263,541.209 378.596,540.209 379.5,539.5C 382.347,540.71 385.181,540.377 388,538.5C 392.265,528.703 395.932,518.703 399,508.5C 399.226,504.448 398.726,500.448 397.5,496.5C 397.818,495.353 398.484,494.519 399.5,494C 402.362,493.73 405.028,492.896 407.5,491.5C 402.804,488.157 398.137,484.824 393.5,481.5C 393.5,480.833 393.833,480.5 394.5,480.5 Z M 283.5,717.5 C 290.926,726.769 298.592,735.935 306.5,745C 306,745.5 305.5,746 305,746.5C 292.759,740.739 285.593,731.072 283.5,717.5 Z"/></g>
<g><path style="opacity:1" fill="#100700" d="M 720.5,489.5 C 724.369,491.265 728.369,492.765 732.5,494C 734.303,494.637 735.636,495.803 736.5,497.5C 728.44,500.137 723.107,497.47 720.5,489.5 Z"/></g>
<g><path style="opacity:1" fill="#f00083" d="M 555.5,500.5 C 555.5,499.833 555.5,499.167 555.5,498.5C 557.417,495.688 559.583,493.022 562,490.5C 565.388,491.777 568.555,493.444 571.5,495.5C 569.492,499 566.992,502 564,504.5C 561.08,503.289 558.247,501.956 555.5,500.5 Z"/></g>
<g><path style="opacity:1" fill="#b807a3" d="M 511.5,491.5 C 516.321,492.039 520.988,493.205 525.5,495C 526.532,500.321 525.866,505.488 523.5,510.5C 518.996,508.554 514.329,507.22 509.5,506.5C 509.908,501.463 510.574,496.463 511.5,491.5 Z"/></g>
<g><path style="opacity:1" fill="#f8653f" d="M 406.5,493.5 C 414.547,507.05 425.214,518.217 438.5,527C 439.833,527.667 439.833,528.333 438.5,529C 433.735,530.199 429.069,531.699 424.5,533.5C 417.724,527.279 411.891,520.279 407,512.5C 406.5,506.175 406.334,499.842 406.5,493.5 Z"/></g>
<g><path style="opacity:1" fill="#f40086" d="M 447.5,528.5 C 447.167,528.5 446.833,528.5 446.5,528.5C 442.971,525.469 439.638,522.303 436.5,519C 438.55,514.389 441.217,510.223 444.5,506.5C 448.366,509.532 451.699,513.032 454.5,517C 452.524,521.131 450.191,524.964 447.5,528.5 Z"/></g>
<g><path style="opacity:1" fill="#f30085" d="M 634.5,581.5 C 631.884,582.48 629.551,583.98 627.5,586C 612.468,581.895 599.634,574.061 589,562.5C 586.427,558.455 584.427,554.122 583,549.5C 581.411,540.546 580.245,531.546 579.5,522.5C 567.178,523.839 561.511,518.506 562.5,506.5C 563.5,507 564.5,507.5 565.5,508C 577.215,508.112 588.881,508.779 600.5,510C 607.606,515.026 612.106,521.859 614,530.5C 615.277,534.097 615.61,537.764 615,541.5C 604.452,545.364 595.118,543.364 587,535.5C 585.472,532.583 584.139,529.583 583,526.5C 583.994,538.988 589.16,549.488 598.5,558C 610.439,567.303 623.772,573.969 638.5,578C 636.676,578.66 635.343,579.827 634.5,581.5 Z"/></g>
<g><path style="opacity:1" fill="#f88700" d="M 304.5,495.5 C 305.711,502.982 307.878,510.315 311,517.5C 318.071,531.123 329.237,538.956 344.5,541C 355.803,542.18 367.136,542.68 378.5,542.5C 386.484,541.335 394.484,540.502 402.5,540C 404.237,545.323 404.904,550.823 404.5,556.5C 392.557,557.928 380.557,558.594 368.5,558.5C 359.067,558.722 349.734,558.055 340.5,556.5C 340.5,555.833 340.167,555.5 339.5,555.5C 334.642,554.404 330.309,552.238 326.5,549C 311.081,534.596 303.748,516.762 304.5,495.5 Z"/></g>
<g><path style="opacity:1" fill="#59034f" d="M 550.5,512.5 C 550.795,510.265 550.461,508.265 549.5,506.5C 549.783,505.711 550.283,505.044 551,504.5C 551.801,507.367 551.634,510.034 550.5,512.5 Z"/></g>
<g><path style="opacity:1" fill="#c1aa00" d="M 337.5,515.5 C 341.694,515.73 345.194,517.397 348,520.5C 349.863,525.343 350.53,530.343 350,535.5C 346.672,532.667 343.005,530.334 339,528.5C 337.805,524.249 337.305,519.915 337.5,515.5 Z"/></g>
<g><path style="opacity:1" fill="#f0623d" d="M 399.5,514.5 C 409.324,524.102 412.824,535.768 410,549.5C 409.025,567.63 401.192,581.796 386.5,592C 382.658,594.002 378.658,595.502 374.5,596.5C 374.685,591.393 375.518,586.393 377,581.5C 389.744,577.638 399.411,569.971 406,558.5C 408.189,547.738 405.522,538.404 398,530.5C 397.249,525.016 397.749,519.682 399.5,514.5 Z"/></g>
<g><path style="opacity:1" fill="#f6643e" d="M 625.5,514.5 C 630.223,516.359 634.89,518.526 639.5,521C 637.413,524.508 635.08,527.842 632.5,531C 636.04,532.931 639.374,535.098 642.5,537.5C 640.223,541.935 637.39,545.935 634,549.5C 629.613,547.723 625.446,545.557 621.5,543C 623.302,539.7 625.302,536.533 627.5,533.5C 624.681,530.925 621.681,528.592 618.5,526.5C 620.857,522.445 623.19,518.445 625.5,514.5 Z"/></g>
<g><path style="opacity:1" fill="#0f0207" d="M 585.5,522.5 C 592.639,522.178 599.639,523.012 606.5,525C 607.5,526 608.5,527 609.5,528C 601.791,530.525 594.457,529.858 587.5,526C 586.177,525.184 585.511,524.017 585.5,522.5 Z"/></g>
<g><path style="opacity:1" fill="#f9653f" d="M 678.5,537.5 C 672.68,535.743 668.68,537.743 666.5,543.5C 661.342,550.917 655.342,557.75 648.5,564C 643.225,567.534 637.392,569.034 631,568.5C 615.716,567.826 604.716,560.826 598,547.5C 602.766,551.93 608.266,555.097 614.5,557C 626.924,558.863 637.424,555.363 646,546.5C 651.38,539.575 656.88,532.742 662.5,526C 666.149,523.09 669.815,522.924 673.5,525.5C 675.731,529.292 677.398,533.292 678.5,537.5 Z"/></g>
<g><path style="opacity:1" fill="#f6643f" d="M 465.5,549.5 C 464.725,547.612 464.725,545.612 465.5,543.5C 460.768,543.378 456.102,543.878 451.5,545C 438.294,548.802 424.961,551.968 411.5,554.5C 411.31,548.728 411.977,543.061 413.5,537.5C 424.755,534.939 435.755,531.939 446.5,528.5C 446.833,528.5 447.167,528.5 447.5,528.5C 447.56,529.043 447.893,529.376 448.5,529.5C 455.913,527.009 463.413,526.342 471,527.5C 471.677,534.63 470.511,541.463 467.5,548C 467.164,549.03 466.497,549.53 465.5,549.5 Z"/></g>
<g><path style="opacity:1" fill="#bb07a6" d="M 499.5,519.5 C 502.618,525.851 504.951,532.518 506.5,539.5C 506.196,543.114 505.029,546.448 503,549.5C 499.517,553.807 496.683,558.473 494.5,563.5C 492.509,566.137 490.509,568.804 488.5,571.5C 486.667,568.5 484.833,565.5 483,562.5C 479.229,569.138 476.229,576.138 474,583.5C 473.359,585.813 472.026,587.48 470,588.5C 462.355,583.584 459.355,576.584 461,567.5C 464.981,570.647 468.814,573.98 472.5,577.5C 475.556,571.334 478.222,565 480.5,558.5C 478.703,554.297 477.87,549.964 478,545.5C 479.888,540.055 482.555,535.055 486,530.5C 487.378,539.593 490.711,547.927 496,555.5C 496.667,553.833 496.667,552.167 496,550.5C 493.586,545.424 492.086,540.09 491.5,534.5C 492.86,528.78 495.526,523.78 499.5,519.5 Z"/></g>
<g><path style="opacity:1" fill="#f48500" d="M 689.5,552.5 C 685.543,552.823 681.71,552.823 678,552.5C 677.143,548.404 675.976,544.404 674.5,540.5C 675.32,538.889 676.654,538.222 678.5,538.5C 682.452,537.728 686.452,537.395 690.5,537.5C 691.5,542.167 692.5,546.833 693.5,551.5C 691.901,551.232 690.568,551.566 689.5,552.5 Z"/></g>
<g><path style="opacity:1" fill="#f7653f" d="M 666.5,543.5 C 667.117,543.611 667.617,543.944 668,544.5C 670.621,551.64 671.621,558.973 671,566.5C 668.943,572.281 666.61,577.947 664,583.5C 663.439,584.022 662.772,584.355 662,584.5C 660.216,583.691 658.383,583.024 656.5,582.5C 654.962,582.453 653.962,583.12 653.5,584.5C 641.906,590.559 631.406,598.225 622,607.5C 620.589,609.65 619.755,611.984 619.5,614.5C 618.833,616.5 618.167,618.5 617.5,620.5C 612.831,612.88 612.497,605.213 616.5,597.5C 616.833,596.833 617.167,596.167 617.5,595.5C 623.191,590.803 628.858,586.137 634.5,581.5C 650.592,573.407 661.259,560.741 666.5,543.5 Z"/></g>
<g><path style="opacity:1" fill="#bd07a7" d="M 544.5,545.5 C 546.781,546.314 548.781,547.648 550.5,549.5C 546.119,563.538 537.452,573.871 524.5,580.5C 523.005,580.989 521.671,581.655 520.5,582.5C 506.152,584.831 497.485,578.831 494.5,564.5C 496.641,567.472 499.308,569.972 502.5,572C 505.167,572.667 507.833,572.667 510.5,572C 525.319,567.852 535.819,558.686 542,544.5C 542.671,545.252 543.504,545.586 544.5,545.5 Z"/></g>
<g><path style="opacity:1" fill="#bc07a7" d="M 465.5,549.5 C 468.796,553.298 472.296,556.964 476,560.5C 475.815,565.22 474.315,569.553 471.5,573.5C 462.5,565.667 453.5,557.833 444.5,550C 449.022,548.262 453.689,547.096 458.5,546.5C 461.046,547.057 463.379,548.057 465.5,549.5 Z"/></g>
<g><path style="opacity:1" fill="#ae079a" d="M 510.5,542.5 C 511.718,551.593 516.052,558.927 523.5,564.5C 518.526,570.474 515.026,569.807 513,562.5C 511.838,555.865 511.005,549.199 510.5,542.5 Z"/></g>
<g><path style="opacity:1" fill="#695a00" d="M 339.5,555.5 C 340.167,555.5 340.5,555.833 340.5,556.5C 340.833,557.167 341.167,557.833 341.5,558.5C 340.549,559.919 340.216,561.585 340.5,563.5C 339.527,561.052 339.194,558.385 339.5,555.5 Z"/></g>
<g><path style="opacity:1" fill="#c8b000" d="M 341.5,558.5 C 344.151,564.982 347.818,570.815 352.5,576C 356.146,579.491 360.48,581.324 365.5,581.5C 365.5,583.167 365.5,584.833 365.5,586.5C 364.833,589.167 364.167,591.833 363.5,594.5C 349.782,588.757 342.115,578.423 340.5,563.5C 340.216,561.585 340.549,559.919 341.5,558.5 Z"/></g>
<g><path style="opacity:1" fill="#cab200" d="M 283.5,560.5 C 298.204,559.018 309.204,564.685 316.5,577.5C 314.22,582.776 311.553,583.276 308.5,579C 295.999,573.19 284.499,574.69 274,583.5C 267.809,593.495 268.476,603.162 276,612.5C 288.486,626.736 302.986,629.236 319.5,620C 322.284,617.888 324.284,615.221 325.5,612C 324.228,607.408 323.061,602.908 322,598.5C 322.667,597.833 323.333,597.167 324,596.5C 324.786,601.22 325.786,605.886 327,610.5C 331.39,601.331 335.39,591.997 339,582.5C 342.808,590.308 348.641,596.141 356.5,600C 358.617,601.731 360.117,603.898 361,606.5C 361.499,615.511 361.333,624.511 360.5,633.5C 349.684,632.523 342.517,626.857 339,616.5C 338.871,610.086 338.204,603.753 337,597.5C 335.072,605.949 332.739,614.283 330,622.5C 320.159,642.836 305.659,647.002 286.5,635C 272.872,622.569 266.205,607.069 266.5,588.5C 266.061,575.365 271.728,566.032 283.5,560.5 Z"/></g>
<g><path style="opacity:1" fill="#653701" d="M 372.5,561.5 C 375.024,560.2 377.691,560.2 380.5,561.5C 380.376,562.107 380.043,562.44 379.5,562.5C 377.393,561.532 375.059,561.198 372.5,561.5 Z"/></g>
<g><path style="opacity:1" fill="#eb8000" d="M 372.5,561.5 C 375.059,561.198 377.393,561.532 379.5,562.5C 371.087,589.472 370.42,616.639 377.5,644C 377.167,644.5 376.833,645 376.5,645.5C 367.934,626.769 364.767,607.102 367,586.5C 367.776,577.802 369.61,569.469 372.5,561.5 Z"/></g>
<g><path style="opacity:1" fill="#f40086" d="M 415.5,608.5 C 414.75,599.841 414.584,591.174 415,582.5C 418.473,568.536 427.306,561.369 441.5,561C 442.98,562.299 443.646,563.966 443.5,566C 440.956,574.475 443.622,580.808 451.5,585C 456.964,586.814 461.464,589.98 465,594.5C 465.186,603.541 464.519,612.541 463,621.5C 461.134,627.092 457.968,627.925 453.5,624C 450.296,621.131 447.463,617.965 445,614.5C 443.781,607.579 443.114,600.579 443,593.5C 439.784,588 438.617,582 439.5,575.5C 420.312,577.016 414.312,586.683 421.5,604.5C 420.611,606.898 419.111,608.898 417,610.5C 416.722,609.584 416.222,608.918 415.5,608.5 Z"/></g>
<g><path style="opacity:1" fill="#f30085" d="M 447.5,560.5 C 451.631,561.816 455.464,563.816 459,566.5C 458.734,572.325 457.4,577.992 455,583.5C 454.667,582.5 454.333,581.5 454,580.5C 451.325,578.554 448.492,576.887 445.5,575.5C 445.167,574.667 444.833,573.833 444.5,573C 445.431,568.779 446.431,564.612 447.5,560.5 Z"/></g>
<g><path style="opacity:1" fill="#f6de31" d="M 314.5,550.5 C 317.044,550.104 319.211,550.771 321,552.5C 325.727,558.897 330.06,565.564 334,572.5C 334.667,573.833 334.667,575.167 334,576.5C 324.431,593.737 312.264,608.904 297.5,622C 291.918,621.944 287.251,619.777 283.5,615.5C 293.153,606.348 302.653,597.014 312,587.5C 317.473,580.052 322.306,572.219 326.5,564C 325.407,562.635 324.074,562.301 322.5,563C 319.727,565.383 317.561,568.217 316,571.5C 312.802,568.257 309.969,564.757 307.5,561C 309.648,557.357 311.981,553.857 314.5,550.5 Z"/></g>
<g><path style="opacity:1" fill="#bb07a6" d="M 499.5,626.5 C 498.833,624.5 498.167,622.5 497.5,620.5C 497.207,614.202 495.707,608.202 493,602.5C 488.812,594.151 483.646,586.484 477.5,579.5C 478.833,576.167 480.167,572.833 481.5,569.5C 482.002,568.479 482.668,568.312 483.5,569C 498.861,585.268 504.194,604.434 499.5,626.5 Z"/></g>
<g><path style="opacity:1" fill="#f2623d" d="M 404.5,574.5 C 408.199,574.432 410.865,575.932 412.5,579C 411.584,583.583 410.418,588.083 409,592.5C 406.358,590.107 403.525,588.107 400.5,586.5C 401.641,582.409 402.975,578.409 404.5,574.5 Z"/></g>
<g><path style="opacity:1" fill="#f50086" d="M 617.5,595.5 C 617.167,596.167 616.833,596.833 616.5,597.5C 611.094,598.372 605.761,599.538 600.5,601C 596.833,601.667 593.167,601.667 589.5,601C 585.65,598.239 581.983,595.239 578.5,592C 569.7,591.767 562.7,588.1 557.5,581C 562.164,581.838 566.831,581.505 571.5,580C 568.554,579.194 565.888,577.861 563.5,576C 556.738,568.346 554.738,559.513 557.5,549.5C 553.483,547.823 549.483,546.157 545.5,544.5C 541.824,543.246 538.324,541.579 535,539.5C 534.267,534.115 534.433,528.782 535.5,523.5C 543.105,528.801 551.438,532.801 560.5,535.5C 562.949,530.995 565.116,526.329 567,521.5C 567.356,526.483 566.19,531.15 563.5,535.5C 568.802,537.736 573.302,541.069 577,545.5C 577.667,553.5 577.667,561.5 577,569.5C 576.261,573.062 574.761,576.228 572.5,579C 577.928,577.97 583.261,576.304 588.5,574C 591.167,573.333 593.833,573.333 596.5,574C 603.703,581.035 610.703,588.202 617.5,595.5 Z"/></g>
<g><path style="opacity:1" fill="#100207" d="M 559.5,549.5 C 565.906,551.404 571.072,555.07 575,560.5C 576.08,563.237 575.246,564.904 572.5,565.5C 564.468,563.137 560.134,557.804 559.5,549.5 Z"/></g>
<g><path style="opacity:1" fill="#f70087" d="M 536.5,574.5 C 548.691,581.173 561.025,587.673 573.5,594C 580.576,598.406 587.076,603.572 593,609.5C 601.107,619.325 604.44,630.658 603,643.5C 601.321,634.307 597.154,626.473 590.5,620C 586.167,617 581.833,614 577.5,611C 560.755,601.879 544.255,592.379 528,582.5C 527.312,581.668 527.479,581.002 528.5,580.5C 531.492,578.829 534.159,576.829 536.5,574.5 Z"/></g>
<g><path style="opacity:1" fill="#f7df31" d="M 296.5,577.5 C 300.059,577.408 303.392,578.241 306.5,580C 308.211,581.133 308.711,582.633 308,584.5C 303.549,592.618 297.383,599.118 289.5,604C 287.5,604.667 285.5,604.667 283.5,604C 279.897,600.62 276.897,596.787 274.5,592.5C 276.57,592.448 278.903,592.281 281.5,592C 287.428,588.053 292.428,583.22 296.5,577.5 Z"/></g>
<g><path style="opacity:1" fill="#f7653f" d="M 388.5,639.5 C 395.629,632.212 403.296,625.379 411.5,619C 419.198,611.636 426.531,603.97 433.5,596C 432.167,595.333 430.833,595.333 429.5,596C 427.023,597.643 424.69,599.476 422.5,601.5C 418.168,595.018 418.502,588.851 423.5,583C 425.635,582.365 427.635,582.699 429.5,584C 434.849,591.195 438.682,599.029 441,607.5C 428.804,620.03 416.304,632.196 403.5,644C 402.391,644.638 401.225,645.138 400,645.5C 396.207,643.354 392.374,641.354 388.5,639.5 Z"/></g>
<g><path style="opacity:1" fill="#f60087" d="M 524.5,582.5 C 526.954,586.789 530.288,590.289 534.5,593C 547.901,601.368 561.901,608.701 576.5,615C 582.979,618.998 588.812,623.832 594,629.5C 599.867,639.361 601.867,650.028 600,661.5C 598.274,662.576 596.441,662.743 594.5,662C 577.246,657.273 569.246,646.106 570.5,628.5C 571.995,635.68 575.995,640.847 582.5,644C 599.733,651.743 601.733,649.076 588.5,636C 570.671,626.253 553.004,616.253 535.5,606C 532.667,603.167 529.833,600.333 527,597.5C 524.95,594.852 523.784,591.852 523.5,588.5C 523.205,586.265 523.539,584.265 524.5,582.5 Z"/></g>
<g><path style="opacity:1" fill="#710140" d="M 524.5,580.5 C 524.5,581.167 524.5,581.833 524.5,582.5C 523.539,584.265 523.205,586.265 523.5,588.5C 523.06,586.156 522.06,584.156 520.5,582.5C 521.671,581.655 523.005,580.989 524.5,580.5 Z"/></g>
<g><path style="opacity:1" fill="#1a050e" d="M 597.5,584.5 C 599.857,584.337 602.19,584.503 604.5,585C 605.833,585.667 605.833,586.333 604.5,587C 597.105,590.422 589.438,591.588 581.5,590.5C 586.984,588.619 592.317,586.619 597.5,584.5 Z"/></g>
<g><path style="opacity:1" fill="#bc07a7" d="M 510.5,584.5 C 511.675,584.281 512.675,584.614 513.5,585.5C 515.975,589.142 518.642,592.642 521.5,596C 517.167,598.5 512.833,601 508.5,603.5C 505.152,600.149 502.152,596.482 499.5,592.5C 503.019,589.579 506.686,586.913 510.5,584.5 Z"/></g>
<g><path style="opacity:1" fill="#554b01" d="M 365.5,586.5 C 365.817,589.572 365.484,592.572 364.5,595.5C 363.893,595.376 363.56,595.043 363.5,594.5C 364.167,591.833 364.833,589.167 365.5,586.5 Z"/></g>
<g><path style="opacity:1" fill="#6a2b1b" d="M 413.5,599.5 C 412.833,597.5 412.167,595.5 411.5,593.5C 411.783,592.711 412.283,592.044 413,591.5C 413.497,594.146 413.664,596.813 413.5,599.5 Z"/></g>
<g><path style="opacity:1" fill="#f5643e" d="M 411.5,593.5 C 412.167,595.5 412.833,597.5 413.5,599.5C 413.42,602.781 414.087,605.781 415.5,608.5C 411.731,614.104 407.064,618.938 401.5,623C 398.654,625.173 395.488,626.673 392,627.5C 390.188,627.507 388.688,626.84 387.5,625.5C 385.246,621.993 383.246,618.327 381.5,614.5C 386.154,614.884 390.488,613.384 394.5,610C 400.67,604.996 406.337,599.496 411.5,593.5 Z"/></g>
<g><path style="opacity:1" fill="#f2623d" d="M 619.5,723.5 C 618.21,722.942 617.377,721.942 617,720.5C 607.817,692.905 608.651,665.572 619.5,638.5C 620.401,637.71 621.068,636.71 621.5,635.5C 627.123,620.912 634.789,607.579 644.5,595.5C 647.314,597.105 650.314,598.105 653.5,598.5C 653.649,599.552 653.483,600.552 653,601.5C 638.237,622.026 626.903,644.359 619,668.5C 614.195,686.896 614.362,705.23 619.5,723.5 Z"/></g>
<g><path style="opacity:1" fill="#120208" d="M 445.5,597.5 C 445.897,596.475 446.563,596.308 447.5,597C 452.422,600.378 457.255,603.878 462,607.5C 462.49,608.793 462.657,610.127 462.5,611.5C 453.822,610.488 448.155,605.821 445.5,597.5 Z"/></g>
<g><path style="opacity:1" fill="#b907a4" d="M 475.5,591.5 C 480.22,598.176 482.22,605.676 481.5,614C 481.776,623.391 479.776,632.224 475.5,640.5C 472.015,638.107 469.015,635.274 466.5,632C 475.301,619.834 478.301,606.334 475.5,591.5 Z"/></g>
<g><path style="opacity:1" fill="#f2da30" d="M 161.5,598.5 C 165.226,598.177 168.893,598.511 172.5,599.5C 175.107,604.38 177.44,609.38 179.5,614.5C 179.167,614.833 178.833,615.167 178.5,615.5C 174.889,614.738 171.222,614.238 167.5,614C 164.786,609.079 162.786,603.912 161.5,598.5 Z"/></g>
<g><path style="opacity:1" fill="#130f01" d="M 340.5,604.5 C 344.738,608.228 349.405,611.394 354.5,614C 356.414,615.413 357.747,617.247 358.5,619.5C 350.578,619.455 344.745,615.788 341,608.5C 340.51,607.207 340.343,605.873 340.5,604.5 Z"/></g>
<g><path style="opacity:1" fill="#f70087" d="M 478.5,651.5 C 477.19,653.148 475.857,654.814 474.5,656.5C 468.337,651.327 461.67,646.994 454.5,643.5C 445.566,637.356 436.566,631.189 427.5,625C 430.349,621.984 433.349,619.15 436.5,616.5C 452.048,625.773 466.714,636.273 480.5,648C 479.695,649.113 479.028,650.279 478.5,651.5 Z"/></g>
<g><path style="opacity:1" fill="#702d1c" d="M 619.5,614.5 C 619.81,617.713 619.477,620.713 618.5,623.5C 618.443,622.391 618.11,621.391 617.5,620.5C 618.167,618.5 618.833,616.5 619.5,614.5 Z"/></g>
<g><path style="opacity:1" fill="#f78700" d="M 653.5,584.5 C 672.875,588.536 681.542,600.536 679.5,620.5C 684.122,620.156 688.455,620.823 692.5,622.5C 692.819,627.363 692.486,632.03 691.5,636.5C 686.798,636.05 682.132,635.383 677.5,634.5C 681.931,621.357 678.598,610.857 667.5,603C 660.081,599.083 652.414,595.75 644.5,593C 647.574,590.151 650.574,587.317 653.5,584.5 Z"/></g>
<g><path style="opacity:1" fill="#ad9c22" d="M 190.5,626.5 C 189.833,626.5 189.5,626.833 189.5,627.5C 186.281,625.472 184.114,622.805 183,619.5C 185.396,622.067 187.896,624.4 190.5,626.5 Z"/></g>
<g><path style="opacity:1" fill="#fb6640" d="M 618.5,623.5 C 619.324,626.764 619.658,630.098 619.5,633.5C 619.5,634.833 619.5,636.167 619.5,637.5C 614.5,637.5 609.5,637.5 604.5,637.5C 604.002,632.848 603.669,628.181 603.5,623.5C 608.5,623.5 613.5,623.5 618.5,623.5 Z"/></g>
<g><path style="opacity:1" fill="#f5dd31" d="M 189.5,627.5 C 189.5,626.833 189.833,626.5 190.5,626.5C 211.336,640.43 233.336,642.264 256.5,632C 261.992,629.421 267.325,626.588 272.5,623.5C 275.041,627.252 278.041,630.585 281.5,633.5C 248.752,659.35 218.086,657.35 189.5,627.5 Z"/></g>
<g><path style="opacity:1" fill="#b907a4" d="M 515.5,604.5 C 528.217,605.573 539.884,609.74 550.5,617C 549.672,617.915 548.672,618.581 547.5,619C 547.833,619.333 548.167,619.667 548.5,620C 554.362,621.951 560.029,624.285 565.5,627C 561.52,630.501 556.854,632.501 551.5,633C 541.004,634.01 530.671,633.177 520.5,630.5C 520.781,632.963 521.781,635.13 523.5,637C 529.5,641 535.5,645 541.5,649C 540.373,650.753 539.373,652.587 538.5,654.5C 537.635,655.583 536.635,655.749 535.5,655C 525.411,647.582 515.911,639.415 507,630.5C 505.872,628.655 505.372,626.655 505.5,624.5C 514.539,626.757 523.706,628.424 533,629.5C 539.577,629.626 545.411,627.626 550.5,623.5C 548.979,622.063 547.145,621.396 545,621.5C 538.764,623.476 532.431,625.142 526,626.5C 520.988,625.91 516.488,624.077 512.5,621C 520.622,618.939 528.289,615.772 535.5,611.5C 533.579,610.359 531.579,610.192 529.5,611C 525.286,613.274 520.953,615.274 516.5,617C 510.891,617.372 505.891,615.706 501.5,612C 506.069,609.217 510.736,606.717 515.5,604.5 Z"/></g>
<g><path style="opacity:1" fill="#730466" d="M 497.5,620.5 C 498.167,622.5 498.833,624.5 499.5,626.5C 499.196,629.522 498.696,632.522 498,635.5C 497.501,630.511 497.334,625.511 497.5,620.5 Z"/></g>
<g><path style="opacity:1" fill="#f9e031" d="M 341.5,634.5 C 346.628,634.112 351.628,634.612 356.5,636C 360.156,640.153 362.49,644.653 363.5,649.5C 358.862,646.815 353.862,645.982 348.5,647C 342.516,648.49 336.849,650.823 331.5,654C 317.494,663.772 304.994,675.272 294,688.5C 291.551,683.682 289.885,678.682 289,673.5C 298.897,662.933 309.397,653.1 320.5,644C 327.201,639.943 334.201,636.776 341.5,634.5 Z"/></g>
<g><path style="opacity:1" fill="#f70087" d="M 388.5,639.5 C 402.809,651.228 419.142,655.062 437.5,651C 443.437,650.194 448.77,648.028 453.5,644.5C 456.969,647.072 460.636,649.406 464.5,651.5C 465.833,652.167 465.833,652.833 464.5,653.5C 444.543,667.286 423.543,669.119 401.5,659C 394.388,655.387 388.721,650.22 384.5,643.5C 380.668,639.174 378.501,634.174 378,628.5C 380.35,633.348 383.85,637.015 388.5,639.5 Z"/></g>
<g><path style="opacity:0.192" fill="#452704" d="M 692.5,622.5 C 693.814,627.348 693.814,632.348 692.5,637.5C 691.893,637.376 691.56,637.043 691.5,636.5C 692.486,632.03 692.819,627.363 692.5,622.5 Z"/></g>
<g><path style="opacity:1" fill="#be07a9" d="M 550.5,637.5 C 553.978,637.184 557.312,637.684 560.5,639C 566.975,644.466 572.308,650.799 576.5,658C 575.049,660.953 573.382,663.787 571.5,666.5C 568.249,664.625 565.082,662.625 562,660.5C 561.963,656.544 563.13,652.877 565.5,649.5C 560.917,648.523 557.417,650.19 555,654.5C 550.099,665.97 544.432,676.97 538,687.5C 534.302,691.399 529.802,692.899 524.5,692C 512.543,685.248 507.043,675.081 508,661.5C 509.53,655.946 513.03,653.779 518.5,655C 521.99,659.105 524.49,663.605 526,668.5C 521.757,665.47 518.757,666.47 517,671.5C 516.502,674.817 516.335,678.15 516.5,681.5C 520.875,681.653 524.708,680.32 528,677.5C 534.752,663.654 542.252,650.32 550.5,637.5 Z"/></g>
<g><path style="opacity:1" fill="#78311e" d="M 619.5,633.5 C 620.167,634.167 620.833,634.833 621.5,635.5C 621.068,636.71 620.401,637.71 619.5,638.5C 614.305,638.821 609.305,638.487 604.5,637.5C 609.5,637.5 614.5,637.5 619.5,637.5C 619.5,636.167 619.5,634.833 619.5,633.5 Z"/></g>
<g><path style="opacity:1" fill="#f2db30" d="M 282.5,640.5 C 286.605,640.234 290.605,640.734 294.5,642C 297.175,646.852 299.175,652.019 300.5,657.5C 295.844,658.569 291.178,658.569 286.5,657.5C 285.325,651.799 283.991,646.132 282.5,640.5 Z"/></g>
<g><path style="opacity:1" fill="#f2623d" d="M 408.5,640.5 C 418.998,639.623 428.331,642.456 436.5,649C 432.618,650.536 428.618,651.203 424.5,651C 420.116,647.144 415.116,644.31 409.5,642.5C 408.702,642.043 408.369,641.376 408.5,640.5 Z"/></g>
<g><path style="opacity:1" fill="#f7643f" d="M 554.5,657.5 C 565.303,663.461 575.136,670.794 584,679.5C 596.384,693.494 597.718,708.494 588,724.5C 581.675,730.98 574.175,735.646 565.5,738.5C 584.124,725.205 586.957,708.538 574,688.5C 567.333,680.5 560,673.167 552,666.5C 552.696,663.562 553.53,660.562 554.5,657.5 Z"/></g>
<g><path style="opacity:1" fill="#7e6f00" d="M 285.5,665.5 C 284.523,668.287 284.19,671.287 284.5,674.5C 283.347,668.681 283.181,662.681 284,656.5C 284.953,659.432 285.453,662.432 285.5,665.5 Z"/></g>
<g><path style="opacity:1" fill="#c9b100" d="M 285.5,665.5 C 290.407,695.815 305.74,719.315 331.5,736C 333.677,737.202 336.011,737.702 338.5,737.5C 338.736,734.774 337.903,732.441 336,730.5C 329.364,724.866 323.031,718.866 317,712.5C 308.951,702.196 307.285,690.863 312,678.5C 313.207,683.668 314.874,688.668 317,693.5C 324.613,701.113 332.279,708.779 340,716.5C 342.964,724.002 343.298,731.669 341,739.5C 339.804,744.288 338.304,748.955 336.5,753.5C 315.698,742.198 300.198,725.865 290,704.5C 286.545,694.824 284.712,684.824 284.5,674.5C 284.19,671.287 284.523,668.287 285.5,665.5 Z"/></g>
<g><path style="opacity:1" fill="#ef613c" d="M 587.5,666.5 C 592.833,666.5 598.167,666.5 603.5,666.5C 603.751,671.507 604.084,676.507 604.5,681.5C 599.489,681.666 594.489,681.499 589.5,681C 587.925,676.329 587.258,671.496 587.5,666.5 Z"/></g>
<g><path style="opacity:1" fill="#f70087" d="M 522.5,712.5 C 522.5,711.833 522.167,711.5 521.5,711.5C 514.935,708.779 510.768,704.112 509,697.5C 515.836,705.251 523.669,706.417 532.5,701C 541.626,692.932 548.959,683.432 554.5,672.5C 555.002,671.479 555.668,671.312 556.5,672C 559.551,674.714 562.218,677.714 564.5,681C 561.054,688.06 557.22,694.893 553,701.5C 549.088,706.083 544.588,709.917 539.5,713C 533.704,715.151 528.037,714.985 522.5,712.5 Z"/></g>
<g><path style="opacity:1" fill="#f3db30" d="M 264.5,678.5 C 264.5,682.833 264.5,687.167 264.5,691.5C 263.167,691.5 261.833,691.5 260.5,691.5C 256.821,691.637 253.321,690.971 250,689.5C 249.501,684.511 249.334,679.511 249.5,674.5C 254.886,674.836 259.886,676.17 264.5,678.5 Z"/></g>
<g><path style="opacity:1" fill="#bb07a6" d="M 484.5,713.5 C 484.672,712.508 484.338,711.842 483.5,711.5C 481.07,706.301 478.903,700.968 477,695.5C 476.333,691.5 476.333,687.5 477,683.5C 478.043,679.725 479.043,676.058 480,672.5C 473.727,678.761 466.394,683.428 458,686.5C 456.97,686.164 456.47,685.497 456.5,684.5C 456.768,682.901 456.434,681.568 455.5,680.5C 455.25,677.786 455.083,675.119 455,672.5C 465.768,668.207 474.268,661.207 480.5,651.5C 488.258,638.98 491.091,625.314 489,610.5C 487.728,605.473 486.728,600.473 486,595.5C 494.52,610.316 498.02,626.316 496.5,643.5C 499.935,641.367 503.435,639.367 507,637.5C 510.656,640.662 513.822,644.329 516.5,648.5C 512.438,651.284 508.271,653.951 504,656.5C 500.769,653.049 497.769,649.382 495,645.5C 492.984,655.368 488.484,663.868 481.5,671C 481.989,678.007 483.489,684.84 486,691.5C 491.93,703.75 498.264,715.75 505,727.5C 510.251,740.33 511.918,753.663 510,767.5C 508.88,775.403 506.88,783.069 504,790.5C 503.542,787.442 503.876,784.442 505,781.5C 506.055,771.032 505.388,760.699 503,750.5C 497.857,737.548 491.691,725.215 484.5,713.5 Z"/></g>
<g><path style="opacity:1" fill="#f5dd31" d="M 88.5,741.5 C 88.5,740.833 88.8333,740.5 89.5,740.5C 114.991,753.229 141.657,756.062 169.5,749C 200.087,742.039 227.42,728.705 251.5,709C 262.269,700.234 272.436,690.734 282,680.5C 283.623,686.547 284.457,692.547 284.5,698.5C 264.039,718.791 240.706,734.958 214.5,747C 193.216,755.158 171.216,759.991 148.5,761.5C 126.366,761.011 106.366,754.344 88.5,741.5 Z"/></g>
<g><path style="opacity:1" fill="#bb07a6" d="M 500.5,681.5 C 501.552,681.351 502.552,681.517 503.5,682C 506.358,685.358 509.025,688.858 511.5,692.5C 507.334,695.417 503.001,698.084 498.5,700.5C 495.149,696.978 492.149,693.144 489.5,689C 493.233,686.477 496.899,683.977 500.5,681.5 Z"/></g>
<g><path style="opacity:0.371" fill="#0e0304" d="M 384.5,643.5 C 388.721,650.22 394.388,655.387 401.5,659C 423.543,669.119 444.543,667.286 464.5,653.5C 465.833,652.833 465.833,652.167 464.5,651.5C 460.636,649.406 456.969,647.072 453.5,644.5C 453.5,643.833 453.833,643.5 454.5,643.5C 461.67,646.994 468.337,651.327 474.5,656.5C 475.857,654.814 477.19,653.148 478.5,651.5C 479.167,651.5 479.833,651.5 480.5,651.5C 474.268,661.207 465.768,668.207 455,672.5C 455.083,675.119 455.25,677.786 455.5,680.5C 455.737,681.791 455.404,682.791 454.5,683.5C 454.238,677.261 452.905,671.261 450.5,665.5C 449.833,665.167 449.167,664.833 448.5,664.5C 443.984,665.232 439.651,666.399 435.5,668C 437.387,671.659 438.887,675.492 440,679.5C 440.384,688.517 440.384,697.517 440,706.5C 443.053,709.91 446.219,712.744 449.5,715C 452.345,708.453 454.012,701.62 454.5,694.5C 455.167,691.167 455.833,687.833 456.5,684.5C 456.47,685.497 456.97,686.164 458,686.5C 466.394,683.428 473.727,678.761 480,672.5C 479.043,676.058 478.043,679.725 477,683.5C 476.333,687.5 476.333,691.5 477,695.5C 478.903,700.968 481.07,706.301 483.5,711.5C 478.176,704.196 472.843,696.863 467.5,689.5C 466.186,690.313 465.019,691.313 464,692.5C 459.58,699.671 455.414,707.004 451.5,714.5C 453.788,718.456 456.788,721.789 460.5,724.5C 465.415,717.672 470.081,710.672 474.5,703.5C 475.631,705.074 475.798,706.741 475,708.5C 471.366,714.936 467.866,721.436 464.5,728C 466.969,731.757 469.802,735.257 473,738.5C 474.609,735.593 476.442,732.927 478.5,730.5C 479.167,731.167 479.833,731.833 480.5,732.5C 479.5,732.5 478.5,732.5 477.5,732.5C 476.947,737.482 476.613,742.482 476.5,747.5C 476.167,747.5 475.833,747.5 475.5,747.5C 463.929,734.425 451.762,721.759 439,709.5C 434.358,703.883 431.024,697.55 429,690.5C 422.446,700.395 423.112,709.728 431,718.5C 442.363,729.529 453.363,740.863 464,752.5C 466.583,755.997 468.916,759.664 471,763.5C 471.667,765.167 471.667,766.833 471,768.5C 458.529,757.03 446.362,745.196 434.5,733C 429.436,733.348 424.436,734.181 419.5,735.5C 419.158,734.662 418.492,734.328 417.5,734.5C 423.757,732.508 430.091,730.341 436.5,728C 435.12,726.075 433.62,724.241 432,722.5C 425.99,731.171 417.824,734.337 407.5,732C 402.802,730.234 398.302,728.067 394,725.5C 393.501,720.845 393.334,716.179 393.5,711.5C 399.93,712.396 405.764,711.063 411,707.5C 409.07,712.298 407.737,717.298 407,722.5C 409.5,725 412,727.5 414.5,730C 419.591,730.622 423.591,728.789 426.5,724.5C 421.108,719.44 416.441,713.774 412.5,707.5C 414.483,705.016 416.65,702.683 419,700.5C 421.06,697.714 422.56,694.714 423.5,691.5C 416.015,691.148 408.682,689.982 401.5,688C 402.833,686.667 404.167,685.333 405.5,684C 396.026,679.676 386.36,675.842 376.5,672.5C 370.325,675.094 364.992,678.928 360.5,684C 358.183,686.157 355.516,687.657 352.5,688.5C 349.763,688.599 347.096,688.265 344.5,687.5C 342.66,685.832 340.66,684.332 338.5,683C 358.158,678.422 375.325,669.255 390,655.5C 390.667,654.833 390.667,654.167 390,653.5C 387.59,650.603 385.423,647.603 383.5,644.5C 383.5,643.833 383.833,643.5 384.5,643.5 Z"/></g>
<g><path style="opacity:1" fill="#f70087" d="M 454.5,683.5 C 454.5,687.167 454.5,690.833 454.5,694.5C 454.012,701.62 452.345,708.453 449.5,715C 446.219,712.744 443.053,709.91 440,706.5C 440.384,697.517 440.384,688.517 440,679.5C 438.887,675.492 437.387,671.659 435.5,668C 439.651,666.399 443.984,665.232 448.5,664.5C 449.167,664.833 449.833,665.167 450.5,665.5C 452.905,671.261 454.238,677.261 454.5,683.5 Z"/></g>
<g><path style="opacity:1" fill="#f6643e" d="M 388.5,659.5 C 397.874,667.355 408.541,672.855 420.5,676C 425.823,676.499 431.156,676.666 436.5,676.5C 437.646,680.754 438.313,685.087 438.5,689.5C 416.065,689.783 398.398,680.783 385.5,662.5C 386.77,661.712 387.77,660.712 388.5,659.5 Z"/></g>
<g><path style="opacity:1" fill="#540034" d="M 455.5,680.5 C 456.434,681.568 456.768,682.901 456.5,684.5C 455.833,687.833 455.167,691.167 454.5,694.5C 454.5,690.833 454.5,687.167 454.5,683.5C 455.404,682.791 455.737,681.791 455.5,680.5 Z"/></g>
<g><path style="opacity:1" fill="#7a351c" d="M 344.5,687.5 C 347.096,688.265 349.763,688.599 352.5,688.5C 351.5,689.167 350.5,689.833 349.5,690.5C 348.833,690.5 348.5,690.833 348.5,691.5C 346.833,690.5 345.5,689.167 344.5,687.5 Z"/></g>
<g><path style="opacity:1" fill="#f5643e" d="M 417.5,734.5 C 409.938,735.553 402.438,735.553 395,734.5C 394.505,736.473 394.338,738.473 394.5,740.5C 404.766,740.63 414.433,743.13 423.5,748C 433.446,758.178 438.946,770.345 440,784.5C 413.77,790.133 397.937,779.8 392.5,753.5C 382.879,751.117 375.045,746.117 369,738.5C 365.489,732.834 363.155,726.834 362,720.5C 363.875,725.427 367.042,729.26 371.5,732C 377.906,735.191 384.573,737.691 391.5,739.5C 392.833,737.5 392.833,735.5 391.5,733.5C 379.153,728.984 370.153,720.818 364.5,709C 372.167,708.667 379.833,708.333 387.5,708C 397.371,706.73 404.371,701.564 408.5,692.5C 406.089,691.518 403.589,690.851 401,690.5C 397.222,694.606 393.055,698.439 388.5,702C 380.674,705.531 373.008,705.198 365.5,701C 371.004,698.827 376.004,695.827 380.5,692C 383.595,687.815 386.928,683.815 390.5,680C 388.029,679.294 385.695,679.627 383.5,681C 378.5,685.333 373.5,689.667 368.5,694C 361.668,695.307 355.335,694.14 349.5,690.5C 350.5,689.833 351.5,689.167 352.5,688.5C 355.516,687.657 358.183,686.157 360.5,684C 364.992,678.928 370.325,675.094 376.5,672.5C 386.36,675.842 396.026,679.676 405.5,684C 404.167,685.333 402.833,686.667 401.5,688C 408.682,689.982 416.015,691.148 423.5,691.5C 422.56,694.714 421.06,697.714 419,700.5C 416.65,702.683 414.483,705.016 412.5,707.5C 416.441,713.774 421.108,719.44 426.5,724.5C 423.591,728.789 419.591,730.622 414.5,730C 412,727.5 409.5,725 407,722.5C 407.737,717.298 409.07,712.298 411,707.5C 405.764,711.063 399.93,712.396 393.5,711.5C 393.334,716.179 393.501,720.845 394,725.5C 398.302,728.067 402.802,730.234 407.5,732C 417.824,734.337 425.99,731.171 432,722.5C 433.62,724.241 435.12,726.075 436.5,728C 430.091,730.341 423.757,732.508 417.5,734.5 Z"/></g>
<g><path style="opacity:1" fill="#f60087" d="M 483.5,711.5 C 484.338,711.842 484.672,712.508 484.5,713.5C 484.649,716.607 484.149,719.607 483,722.5C 481.223,725.059 479.723,727.726 478.5,730.5C 476.442,732.927 474.609,735.593 473,738.5C 469.802,735.257 466.969,731.757 464.5,728C 467.866,721.436 471.366,714.936 475,708.5C 475.798,706.741 475.631,705.074 474.5,703.5C 470.081,710.672 465.415,717.672 460.5,724.5C 456.788,721.789 453.788,718.456 451.5,714.5C 455.414,707.004 459.58,699.671 464,692.5C 465.019,691.313 466.186,690.313 467.5,689.5C 472.843,696.863 478.176,704.196 483.5,711.5 Z"/></g>
<g><path style="opacity:1" fill="#6f6416" d="M 264.5,678.5 C 265.486,682.97 265.819,687.637 265.5,692.5C 263.585,692.784 261.919,692.451 260.5,691.5C 261.833,691.5 263.167,691.5 264.5,691.5C 264.5,687.167 264.5,682.833 264.5,678.5 Z"/></g>
<g><path style="opacity:1" fill="#f70087" d="M 475.5,747.5 C 476.573,753.115 476.74,758.782 476,764.5C 473.137,771.422 470.47,778.422 468,785.5C 467.529,783.754 466.862,782.087 466,780.5C 449.693,766.36 434.193,751.36 419.5,735.5C 424.436,734.181 429.436,733.348 434.5,733C 446.362,745.196 458.529,757.03 471,768.5C 471.667,766.833 471.667,765.167 471,763.5C 468.916,759.664 466.583,755.997 464,752.5C 453.363,740.863 442.363,729.529 431,718.5C 423.112,709.728 422.446,700.395 429,690.5C 431.024,697.55 434.358,703.883 439,709.5C 451.762,721.759 463.929,734.425 475.5,747.5 Z"/></g>
<g><path style="opacity:1" fill="#f50086" d="M 566.5,695.5 C 568.017,695.511 569.184,696.177 570,697.5C 572.167,700.5 574.333,703.5 576.5,706.5C 573.353,709.241 570.02,711.741 566.5,714C 568.206,716.572 570.039,719.072 572,721.5C 572.667,722.167 572.667,722.833 572,723.5C 568.148,726.093 564.148,728.426 560,730.5C 556.469,727.629 553.636,724.129 551.5,720C 554.16,717.01 557.16,714.343 560.5,712C 559.015,709.844 557.515,707.677 556,705.5C 555.333,704.5 555.333,703.5 556,702.5C 559.651,700.267 563.151,697.934 566.5,695.5 Z"/></g>
<g><path style="opacity:1" fill="#6b2c1b" d="M 391.5,715.5 C 391.5,714.5 391.5,713.5 391.5,712.5C 387.958,712.187 384.625,712.521 381.5,713.5C 380.957,713.44 380.624,713.107 380.5,712.5C 384.445,711.509 388.445,711.176 392.5,711.5C 392.768,713.099 392.434,714.432 391.5,715.5 Z"/></g>
<g><path style="opacity:1" fill="#060201" d="M 391.5,715.5 C 391.665,718.518 391.498,721.518 391,724.5C 387.25,721.256 384.083,717.589 381.5,713.5C 384.625,712.521 387.958,712.187 391.5,712.5C 391.5,713.5 391.5,714.5 391.5,715.5 Z"/></g>
<g><path style="opacity:1" fill="#b807a3" d="M 521.5,711.5 C 522.167,711.5 522.5,711.833 522.5,712.5C 524.205,717.098 525.371,721.765 526,726.5C 521.263,728.039 516.43,728.873 511.5,729C 509.292,724.719 508.125,720.219 508,715.5C 512.572,714.07 517.072,712.736 521.5,711.5 Z"/></g>
<g><path style="opacity:1" fill="#97881e" d="M 72.5,716.5 C 66.7291,715.887 61.3958,716.554 56.5,718.5C 55.596,717.791 55.2627,716.791 55.5,715.5C 61.358,715.178 67.0247,715.511 72.5,716.5 Z"/></g>
<g><path style="opacity:1" fill="#fae232" d="M 72.5,716.5 C 75.2624,721.105 77.2624,726.105 78.5,731.5C 73.2649,733.45 67.5982,734.117 61.5,733.5C 60.031,728.426 58.3643,723.426 56.5,718.5C 61.3958,716.554 66.7291,715.887 72.5,716.5 Z"/></g>
<g><path style="opacity:1" fill="#f78600" d="M 383.5,644.5 C 385.423,647.603 387.59,650.603 390,653.5C 390.667,654.167 390.667,654.833 390,655.5C 375.325,669.255 358.158,678.422 338.5,683C 340.66,684.332 342.66,685.832 344.5,687.5C 345.5,689.167 346.833,690.5 348.5,691.5C 352.906,696.313 355.74,701.98 357,708.5C 358.899,726.103 356.566,743.103 350,759.5C 341.503,770.568 330.17,775.902 316,775.5C 292.536,773.707 277.869,761.374 272,738.5C 271.333,730.5 271.333,722.5 272,714.5C 274.038,732.427 282.538,746.26 297.5,756C 311.836,761.228 325.836,760.562 339.5,754C 352.414,744.372 356.914,731.872 353,716.5C 350,707.323 343.833,701.989 334.5,700.5C 335.032,694.848 335.365,689.181 335.5,683.5C 327.256,684.317 320.089,681.984 314,676.5C 312.991,674.975 312.491,673.308 312.5,671.5C 323.065,674.495 333.398,673.662 343.5,669C 357.793,662.611 370.626,654.111 382,643.5C 382.383,644.056 382.883,644.389 383.5,644.5 Z M 283.5,717.5 C 285.593,731.072 292.759,740.739 305,746.5C 305.5,746 306,745.5 306.5,745C 298.592,735.935 290.926,726.769 283.5,717.5 Z"/></g>
<g><path style="opacity:1" fill="#ba07a5" d="M 480.5,732.5 C 483.784,732.723 486.951,733.39 490,734.5C 490.005,739.147 489.838,743.814 489.5,748.5C 485.19,747.92 480.857,747.586 476.5,747.5C 476.613,742.482 476.947,737.482 477.5,732.5C 478.5,732.5 479.5,732.5 480.5,732.5 Z"/></g>
<g><path style="opacity:1" fill="#91831d" d="M 78.5,731.5 C 81.8514,734.848 85.5181,737.848 89.5,740.5C 88.8333,740.5 88.5,740.833 88.5,741.5C 85.3785,739.552 82.3785,737.385 79.5,735C 73.3193,734.828 67.3193,734.328 61.5,733.5C 67.5982,734.117 73.2649,733.45 78.5,731.5 Z"/></g>
<g><path style="opacity:1" fill="#bc07a7" d="M 494.5,738.5 C 503.86,759.544 503.694,780.544 494,801.5C 481.603,820.903 469.603,840.57 458,860.5C 450.307,874.211 445.807,888.878 444.5,904.5C 444.673,908.541 445.173,912.541 446,916.5C 447.707,922.276 449.374,927.943 451,933.5C 440.944,918.669 436.611,902.336 438,884.5C 444.996,859.511 455.996,836.511 471,815.5C 471.667,814.167 471.667,812.833 471,811.5C 465.869,806.911 463.869,801.244 465,794.5C 470.256,784.984 476.256,775.984 483,767.5C 488.511,758.461 492.344,748.794 494.5,738.5 Z"/></g>
<g><path style="opacity:1" fill="#0b0402" d="M 397.5,755.5 C 411.011,755.225 423.011,759.558 433.5,768.5C 417.925,773.86 405.925,769.526 397.5,755.5 Z"/></g>
<g><path style="opacity:1" fill="#0f020d" d="M 495.5,766.5 C 496.488,770.155 495.988,773.821 494,777.5C 487.795,789.691 480.795,801.357 473,812.5C 472.333,810.167 472.333,807.833 473,805.5C 481.554,793.112 489.054,780.112 495.5,766.5 Z"/></g>
<g><path style="opacity:1" fill="#830048" d="M 448.5,778.5 C 447.791,779.404 446.791,779.737 445.5,779.5C 445.5,782.5 445.5,785.5 445.5,788.5C 444.521,785.375 444.187,782.042 444.5,778.5C 445.833,778.5 447.167,778.5 448.5,778.5 Z"/></g>
<g><path style="opacity:1" fill="#f20085" d="M 448.5,778.5 C 451.572,778.183 454.572,778.516 457.5,779.5C 458.443,784.1 458.777,788.767 458.5,793.5C 454.167,793.5 449.833,793.5 445.5,793.5C 445.5,791.833 445.5,790.167 445.5,788.5C 445.5,785.5 445.5,782.5 445.5,779.5C 446.791,779.737 447.791,779.404 448.5,778.5 Z"/></g>
<g><path style="opacity:1" fill="#ba07a5" d="M 446.5,938.5 C 449.448,938.223 452.281,938.556 455,939.5C 456.505,943.35 458.005,947.183 459.5,951C 454.609,952.861 449.609,953.861 444.5,954C 442.336,949.674 440.669,945.174 439.5,940.5C 442.067,940.279 444.401,939.612 446.5,938.5 Z"/></g>
</svg>
