<svg width="393" height="646" viewBox="0 0 393 646" fill="none" xmlns="http://www.w3.org/2000/svg">
<g opacity="0.8" clip-path="url(#clip0_1149_73171)">
<g opacity="0.5">
<path d="M142.697 480.506H127.247V465.059H142.697V480.506Z" fill="#222B36"/>
<path d="M159.253 497.031H143.802V481.584H159.253V497.031Z" fill="#222B36"/>
<path d="M175.784 513.561H160.334V498.111H175.784V513.561Z" fill="#222B36"/>
<path d="M192.315 530.088H176.864V514.641H192.315V530.088Z" fill="#222B36"/>
<path d="M208.845 546.618H193.394V531.168H208.845V546.618Z" fill="#222B36"/>
<path d="M225.375 563.17H209.925V547.723H225.375V563.17Z" fill="#343E4D"/>
<path d="M241.907 579.7H226.456V564.25H241.907V579.7Z" fill="#222B36"/>
<path d="M258.437 596.227H242.986V580.779H258.437V596.227Z" fill="#222B36"/>
<path d="M274.968 612.754H259.517V597.307H274.968V612.754Z" fill="#222B36"/>
<path d="M291.499 629.284H276.048V613.834H291.499V629.284Z" fill="#222B36"/>
<path d="M308.029 645.811H292.578V630.363H308.029V645.811Z" fill="#222B36"/>
<path d="M176.015 480.273H160.564V464.826H176.015V480.273Z" fill="#222B36"/>
<path d="M192.546 496.802H177.096V481.352H192.546V496.802Z" fill="#222B36"/>
<path d="M209.077 513.33H193.626V497.883H209.077V513.33Z" fill="#222B36"/>
<path d="M225.607 529.858H210.156V514.408H225.607V529.858Z" fill="#343E4D"/>
<path d="M242.138 546.385H226.687V530.938H242.138V546.385Z" fill="#343E4D"/>
<path d="M258.669 562.912H243.218V547.465H258.669V562.912Z" fill="#343E4D"/>
<path d="M275.225 579.442H259.774V563.992H275.225V579.442Z" fill="#222B36"/>
<path d="M291.755 595.969H276.304V580.521H291.755V595.969Z" fill="#222B36"/>
<path d="M308.285 612.524H292.835V597.074H308.285V612.524Z" fill="#222B36"/>
<path d="M209.308 480.044H193.857V464.594H209.308V480.044Z" fill="#222B36"/>
<path d="M225.865 496.57H210.414V481.123H225.865V496.57Z" fill="#343E4D"/>
<path d="M242.395 513.098H226.944V497.65H242.395V513.098Z" fill="#343E4D"/>
<path d="M258.925 529.627H243.474V514.18H258.925V529.627Z" fill="#343E4D"/>
<path d="M275.457 546.154H260.006V530.707H275.457V546.154Z" fill="#343E4D"/>
<path d="M291.987 562.683H276.536V547.232H291.987V562.683Z" fill="#343E4D"/>
<path d="M308.517 579.211H293.066V563.764H308.517V579.211Z" fill="#222B36"/>
<path d="M143.417 380.615H127.966V365.168H143.417V380.615Z" fill="#222B36"/>
<path d="M159.948 397.145H144.497V381.695H159.948V397.145Z" fill="#222B36"/>
<path d="M176.479 413.672H161.028V398.225H176.479V413.672Z" fill="#222B36"/>
<path d="M193.009 430.202H177.558V414.752H193.009V430.202Z" fill="#222B36"/>
<path d="M209.565 446.729H194.114V431.281H209.565V446.729Z" fill="#222B36"/>
<path d="M226.095 463.256H210.644V447.809H226.095V463.256Z" fill="#222B36"/>
<path d="M242.627 479.785H227.176V464.338H242.627V479.785Z" fill="#222B36"/>
<path d="M259.157 496.313H243.706V480.865H259.157V496.313Z" fill="#222B36"/>
<path d="M275.688 512.843H260.236V497.393H275.688V512.843Z" fill="#343E4D"/>
<path d="M292.218 529.395H276.767V513.947H292.218V529.395Z" fill="#222B36"/>
<path d="M308.749 545.925H293.298V530.475H308.749V545.925Z" fill="#222B36"/>
<path d="M325.279 562.451H309.828V547.004H325.279V562.451Z" fill="#222B36"/>
<path d="M341.81 578.981H326.359V563.531H341.81V578.981Z" fill="#222B36"/>
<path d="M358.341 595.508H342.89V580.061H358.341V595.508Z" fill="#222B36"/>
<path d="M374.897 612.035H359.446V596.588H374.897V612.035Z" fill="#222B36"/>
<path d="M391.427 628.563H375.976V613.113H391.427V628.563Z" fill="#222B36"/>
<path d="M407.958 645.09H392.507V629.643H407.958L407.958 645.09Z" fill="#222B36"/>
<path d="M176.735 380.36H161.285V364.91H176.735V380.36Z" fill="#222B36"/>
<path d="M193.266 396.914H177.815V381.467H193.266V396.914Z" fill="#222B36"/>
<path d="M209.797 413.442H194.346V397.992H209.797V413.442Z" fill="#222B36"/>
<path d="M226.327 429.971H210.876V414.523H226.327V429.971Z" fill="#222B36"/>
<path d="M242.857 446.496H227.406V431.049H242.857V446.496Z" fill="#222B36"/>
<path d="M259.389 463.026H243.938V447.576H259.389V463.026Z" fill="#222B36"/>
<path d="M275.919 479.553H260.468V464.105H275.919V479.553Z" fill="#343E4D"/>
<path d="M292.449 496.083H276.998L276.999 480.633H292.449V496.083Z" fill="#343E4D"/>
<path d="M308.98 512.609H293.529V497.162H308.98L308.98 512.609Z" fill="#343E4D"/>
<path d="M325.536 529.14H310.086V513.689H325.536V529.14Z" fill="#222B36"/>
<path d="M342.067 545.666H326.616V530.219H342.067V545.666Z" fill="#222B36"/>
<path d="M358.597 562.219H343.146V546.771H358.597V562.219Z" fill="#222B36"/>
<path d="M375.128 578.748H359.677V563.301H375.128V578.748Z" fill="#222B36"/>
<path d="M391.659 595.275H376.208V579.828H391.659V595.275Z" fill="#222B36"/>
<path d="M408.189 611.806H392.738V596.355H408.189L408.189 611.806Z" fill="#222B36"/>
<path d="M210.028 380.129H194.577V364.682H210.028V380.129Z" fill="#222B36"/>
<path d="M226.559 396.656H211.108V381.209H226.559V396.656Z" fill="#222B36"/>
<path d="M243.089 413.185H227.638V397.734H243.089V413.185Z" fill="#222B36"/>
<path d="M259.645 429.713H244.194V414.266H259.645V429.713Z" fill="#222B36"/>
<path d="M276.176 446.267H260.725V430.816H276.176V446.267Z" fill="#343E4D"/>
<path d="M292.707 462.795H277.256V447.348H292.707V462.795Z" fill="#343E4D"/>
<path d="M309.237 479.323H293.786V463.873H309.237V479.323Z" fill="#343E4D"/>
<path d="M325.767 495.85H310.317V480.402H325.767V495.85Z" fill="#343E4D"/>
<path d="M342.299 512.38H326.848V496.93H342.299V512.38Z" fill="#343E4D"/>
<path d="M358.829 528.906H343.378V513.459H358.829V528.906Z" fill="#222B36"/>
<path d="M375.359 545.434H359.908V529.986H375.359V545.434Z" fill="#222B36"/>
<path d="M391.89 561.964H376.439V546.514H391.89V561.964Z" fill="#222B36"/>
<path d="M408.421 578.49H392.97V563.043H408.421V578.49Z" fill="#222B36"/>
<path d="M94.5457 231.118H79.0955V215.67H94.5457V231.118Z" fill="#222B36"/>
<path d="M111.075 247.648H95.625V232.199H111.075V247.648Z" fill="#222B36"/>
<path d="M127.607 264.175H112.155V248.727H127.607V264.175Z" fill="#222B36"/>
<path d="M144.137 280.704H128.686V265.256H144.137V280.704Z" fill="#222B36"/>
<path d="M160.667 297.231H145.217V281.783H160.667V297.231Z" fill="#222B36"/>
<path d="M177.198 313.786H161.747V298.336H177.198V313.786Z" fill="#222B36"/>
<path d="M193.729 330.313H178.278V314.865H193.729V330.313Z" fill="#222B36"/>
<path d="M210.259 346.84H194.809V331.393H210.259V346.84Z" fill="#222B36"/>
<path d="M226.79 363.37H211.339V347.92H226.79V363.37Z" fill="#222B36"/>
<path d="M243.346 379.897H227.896V364.449H243.346V379.897Z" fill="#222B36"/>
<path d="M259.877 396.427H244.426V380.977H259.877V396.427Z" fill="#222B36"/>
<path d="M276.407 412.953H260.956V397.506H276.407V412.953Z" fill="#222B36"/>
<path d="M292.938 429.483H277.487V414.033H292.938V429.483Z" fill="#222B36"/>
<path d="M309.469 446.01H294.018V430.562H309.469V446.01Z" fill="#343E4D"/>
<path d="M325.999 462.537H310.548V447.09H325.999V462.537Z" fill="#343E4D"/>
<path d="M342.529 479.092H327.079V463.645H342.529V479.092Z" fill="#343E4D"/>
<path d="M359.06 495.619H343.609V480.172H359.06V495.619Z" fill="#222B36"/>
<path d="M375.591 512.147H360.14V496.697H375.591V512.147Z" fill="#222B36"/>
<path d="M392.121 528.674H376.671V513.227H392.121V528.674Z" fill="#222B36"/>
<path d="M127.838 230.888H112.387V215.439H127.838V230.888Z" fill="#222B36"/>
<path d="M144.369 247.415H128.918V231.967H144.369V247.415Z" fill="#222B36"/>
<path d="M160.899 263.945H145.448V248.496H160.899V263.945Z" fill="#222B36"/>
<path d="M177.429 280.472H161.979V265.023H177.429V280.472Z" fill="#222B36"/>
<path d="M193.986 296.998H178.535V281.551H193.986V296.998Z" fill="#222B36"/>
<path d="M210.517 313.528H195.066V298.078H210.517V313.528Z" fill="#222B36"/>
<path d="M227.047 330.055H211.596V314.607H227.047V330.055Z" fill="#222B36"/>
<path d="M243.577 346.61H228.126V331.16H243.577V346.61Z" fill="#343E4D"/>
<path d="M161.156 230.657H145.705V215.209H161.156V230.657Z" fill="#222B36"/>
<path d="M177.687 247.185H162.236V231.736H177.687V247.185Z" fill="#222B36"/>
<path d="M194.217 263.712H178.766V248.264H194.217V263.712Z" fill="#222B36"/>
<path d="M210.748 280.241H195.297V264.793H210.748V280.241Z" fill="#222B36"/>
<path d="M227.279 296.769H211.828V281.32H227.279V296.769Z" fill="#222B36"/>
<path d="M243.809 313.297H228.358V297.85H243.809V313.297Z" fill="#343E4D"/>
<path d="M260.339 329.825H244.888V314.375H260.339V329.825Z" fill="#343E4D"/>
<path d="M276.87 346.352H261.419V330.904H276.87V346.352Z" fill="#343E4D"/>
<path d="M12.5857 48.5657H-2.86448V33.1172H12.5857V48.5657Z" fill="#343E4D"/>
<path d="M45.6479 81.6477H30.1978V66.1992H45.6479V81.6477Z" fill="#343E4D"/>
<path d="M78.7356 114.702H63.2826V99.2539H78.7356V114.702Z" fill="#343E4D"/>
<path d="M95.2651 131.232H79.815V115.783H95.2651V131.232Z" fill="#343E4D"/>
<path d="M111.795 147.759H96.3448V132.311H111.795V147.759Z" fill="#343E4D"/>
<path d="M128.326 164.286H112.874V148.838H128.326V164.286Z" fill="#343E4D"/>
<path d="M144.857 180.816H129.406V165.367H144.857V180.816Z" fill="#343E4D"/>
<path d="M161.387 197.343H145.936V181.895H161.387V197.343Z" fill="#343E4D"/>
<path d="M177.918 213.871H162.467V198.422H177.918V213.871Z" fill="#343E4D"/>
<path d="M194.449 230.4H178.998V214.951H194.449V230.4Z" fill="#343E4D"/>
<path d="M210.979 246.927H195.528V231.479H210.979V246.927Z" fill="#343E4D"/>
<path d="M227.51 263.482H212.059V248.033H227.51V263.482Z" fill="#343E4D"/>
<path d="M244.04 280.009H228.589V264.561H244.04V280.009Z" fill="#343E4D"/>
<path d="M260.597 296.538H245.146V281.09H260.597V296.538Z" fill="#343E4D"/>
<path d="M277.127 313.067H261.676V297.617H277.127V313.067Z" fill="#343E4D"/>
<path d="M293.657 329.594H278.207V314.146H293.657V329.594Z" fill="#343E4D"/>
<path d="M310.189 346.121H294.738V330.674H310.189V346.121Z" fill="#343E4D"/>
<path d="M194.68 197.113H179.229V181.664H194.68V197.113Z" fill="#222B36"/>
<path d="M211.236 213.64H195.785V198.191H211.236V213.64Z" fill="#222B36"/>
<path d="M227.741 230.167H212.29V214.719H227.741V230.167Z" fill="#222B36"/>
<path d="M244.297 246.697H228.846V231.248H244.297V246.697Z" fill="#222B36"/>
<path d="M260.828 263.224H245.377V247.775H260.828V263.224Z" fill="#222B36"/>
<path d="M277.359 279.753H261.908V264.305H277.359V279.753Z" fill="#343E4D"/>
<path d="M293.889 296.279H278.438V280.832H293.889V296.279Z" fill="#343E4D"/>
<path d="M310.419 312.834H294.969V297.387H310.419V312.834Z" fill="#343E4D"/>
<path d="M194.937 163.823H179.486V148.375H194.937V163.823Z" fill="#222B36"/>
<path d="M211.468 180.353H196.017V164.904H211.468V180.353Z" fill="#222B36"/>
<path d="M227.998 196.88H212.547V181.432H227.998V196.88Z" fill="#222B36"/>
<path d="M244.529 213.409H229.078V197.961H244.529V213.409Z" fill="#222B36"/>
<path d="M261.06 229.937H245.609V214.488H261.06V229.937Z" fill="#222B36"/>
<path d="M277.59 246.464H262.139V231.016H277.59V246.464Z" fill="#222B36"/>
<path d="M294.121 262.993H278.67V247.545H294.121V262.993Z" fill="#222B36"/>
<path d="M310.651 279.521H295.2V264.072H310.651V279.521Z" fill="#343E4D"/>
<path d="M342.761 445.777H327.31V430.33H342.761V445.777Z" fill="#343E4D"/>
<path d="M343.018 412.491H327.567V397.041H343.018V412.491Z" fill="#222B36"/>
<path d="M359.549 429.018H344.098V413.57H359.549V429.018Z" fill="#222B36"/>
<path d="M376.079 445.548H360.628V430.098H376.079V445.548Z" fill="#222B36"/>
<path d="M343.249 379.176H327.799V363.729H343.249V379.176Z" fill="#343E4D"/>
<path d="M359.78 395.706H344.329V380.256H359.78V395.706Z" fill="#343E4D"/>
<path d="M376.311 412.232H360.86V396.785H376.311V412.232Z" fill="#343E4D"/>
<path d="M392.841 428.763H377.391V413.312H392.841L392.841 428.763Z" fill="#343E4D"/>
<path d="M376.542 378.946H361.091V363.496H376.542V378.946Z" fill="#222B36"/>
<path d="M393.073 395.475H377.622V380.027H393.073V395.475Z" fill="#222B36"/>
<path d="M195.168 130.511H179.717V115.062H195.168V130.511Z" fill="#222B36"/>
<path d="M211.699 147.04H196.248V131.592H211.699V147.04Z" fill="#222B36"/>
<path d="M228.229 163.568H212.778V148.119H228.229V163.568Z" fill="#222B36"/>
<path d="M244.76 180.095H229.309V164.646H244.76V180.095Z" fill="#222B36"/>
<path d="M261.291 196.624H245.84V181.176H261.291V196.624Z" fill="#222B36"/>
<path d="M277.822 213.152H262.371V197.703H277.822V213.152Z" fill="#222B36"/>
<path d="M294.352 229.706H278.901V214.258H294.352V229.706Z" fill="#222B36"/>
<path d="M310.908 246.234H295.457V230.785H310.908V246.234Z" fill="#222B36"/>
<path d="M327.439 262.761H311.988V247.312H327.439V262.761Z" fill="#222B36"/>
<path d="M343.969 279.29H328.519V263.842H343.969V279.29Z" fill="#222B36"/>
<path d="M360.5 295.817H345.049V280.369H360.5V295.817Z" fill="#222B36"/>
<path d="M377.031 312.347H361.58V296.896H377.031V312.347Z" fill="#222B36"/>
<path d="M393.561 328.873H378.111V313.426H393.561V328.873Z" fill="#222B36"/>
<path d="M344.201 245.976H328.75V230.527H344.201V245.976Z" fill="#222B36"/>
<path d="M360.731 262.53H345.28V247.082H360.731V262.53Z" fill="#222B36"/>
<path d="M377.262 279.058H361.811V263.609H377.262V279.058Z" fill="#222B36"/>
<path d="M393.792 295.586H378.341V280.139H393.792V295.586Z" fill="#222B36"/>
<path d="M344.432 212.689H328.981V197.24H344.432V212.689Z" fill="#222B36"/>
<path d="M360.963 229.216H345.512V213.768H360.963V229.216Z" fill="#222B36"/>
<path d="M377.493 245.745H362.043V230.297H377.493V245.745Z" fill="#222B36"/>
<path d="M394.05 262.273H378.599V246.824H394.05V262.273Z" fill="#222B36"/>
<path d="M344.664 179.402H329.213V163.953H344.664V179.402Z" fill="#222B36"/>
<path d="M361.22 195.929H345.769V180.48H361.22V195.929Z" fill="#222B36"/>
<path d="M377.75 212.458H362.299V197.01H377.75V212.458Z" fill="#222B36"/>
<path d="M394.281 228.986H378.83V213.537H394.281V228.986Z" fill="#222B36"/>
</g>
</g>
<defs>
<clipPath id="clip0_1149_73171">
<rect width="408" height="646" fill="white" transform="matrix(-1 0 0 1 408 0)"/>
</clipPath>
</defs>
</svg>
